<svg xmlns="http://www.w3.org/2000/svg" width="268" height="61" fill="none"><mask id="c" width="49" height="14" x="162" y="32" fill="#000" maskUnits="userSpaceOnUse"><rect width="49" height="14" x="162" y="32" fill="#fff"/><path d="M177.27 35.56a18.2 18.2 0 0 1 .02 4c-.32 1.98-1.34 2.81-4.02 2.81h-6.69V45h-3.21V32.91h9.9c2.4 0 3.62.73 4 2.65Zm-3.2 2.92v-1.83c0-.6-.49-1.09-1.1-1.09h-6.39v4.01h6.4c.6 0 1.09-.48 1.09-1.09Zm19.52 1.07c-.19 1.25-.67 2.04-1.66 2.46l1.77 3h-3.65l-1.54-2.64h-5.62V45h-3.21V32.91h9.9c2.4 0 3.62.73 4 2.65.08.47.12 1.42.12 2 0 .58-.02 1.48-.1 2Zm-10.7-3.99v4.01h6.4c.6 0 1.09-.5 1.09-1.09v-1.83c0-.6-.49-1.09-1.1-1.09h-6.39Zm22.77-2.65c3.38 0 4.43 1.56 4.43 4.88v2.52c0 3.45-1.5 4.69-4.88 4.69h-4.5c-3.36 0-4.85-1.24-4.85-4.69V37.8c0-3.32 1.05-4.88 4.43-4.88h5.37Zm1.11 7.58v-2.87c0-1.28-.42-2.06-1.6-2.06h-4.38c-1.2 0-1.61.78-1.61 2.06v2.87c0 1.55.5 1.88 1.63 1.88h4.34c1.12 0 1.62-.33 1.62-1.88Z"/></mask><path fill="url(#a)" d="M177.27 35.56a18.2 18.2 0 0 1 .02 4c-.32 1.98-1.34 2.81-4.02 2.81h-6.69V45h-3.21V32.91h9.9c2.4 0 3.62.73 4 2.65Zm-3.2 2.92v-1.83c0-.6-.49-1.09-1.1-1.09h-6.39v4.01h6.4c.6 0 1.09-.48 1.09-1.09Zm19.52 1.07c-.19 1.25-.67 2.04-1.66 2.46l1.77 3h-3.65l-1.54-2.64h-5.62V45h-3.21V32.91h9.9c2.4 0 3.62.73 4 2.65.08.47.12 1.42.12 2 0 .58-.02 1.48-.1 2Zm-10.7-3.99v4.01h6.4c.6 0 1.09-.5 1.09-1.09v-1.83c0-.6-.49-1.09-1.1-1.09h-6.39Zm22.77-2.65c3.38 0 4.43 1.56 4.43 4.88v2.52c0 3.45-1.5 4.69-4.88 4.69h-4.5c-3.36 0-4.85-1.24-4.85-4.69V37.8c0-3.32 1.05-4.88 4.43-4.88h5.37Zm1.11 7.58v-2.87c0-1.28-.42-2.06-1.6-2.06h-4.38c-1.2 0-1.61.78-1.61 2.06v2.87c0 1.55.5 1.88 1.63 1.88h4.34c1.12 0 1.62-.33 1.62-1.88Z"/><path fill="url(#b)" d="m177.27 35.56.49-.1-.5.1Zm.01 4 .5.07v-.01l-.5-.07Zm-10.7 2.81v-.5h-.5v.5h.5Zm0 2.63v.5h.5V45h-.5Zm-3.21 0h-.5v.5h.5V45Zm0-12.09v-.5h-.5v.5h.5Zm3.21 2.65v-.5h-.5v.5h.5Zm0 4.01h-.5v.5h.5v-.5Zm10.69-4.01-.5.1c.08.4.12 1.32.12 1.9h1c0-.58-.04-1.57-.13-2.1l-.5.1Zm.12 2h-.5c0 .57-.04 1.44-.1 1.93l.5.06.49.07c.07-.55.1-1.48.1-2.05h-.5Zm-.1 2-.5-.08c-.14.92-.44 1.48-.92 1.82-.5.37-1.3.57-2.6.57v1c1.38 0 2.43-.2 3.19-.76.78-.56 1.15-1.42 1.32-2.48l-.5-.08Zm-4.02 2.81v-.5h-6.69v1h6.7v-.5Zm-6.69 0h-.5V45h1v-2.63h-.5Zm0 2.63v-.5h-3.21v1h3.21V45Zm-3.21 0h.5V32.91h-1V45h.5Zm0-12.09v.5h9.9v-1h-9.9v.5Zm9.9 0v.5c1.17 0 1.95.18 2.49.53.5.33.84.85 1.02 1.72l.49-.1.49-.1a3.44 3.44 0 0 0-1.46-2.36 5.52 5.52 0 0 0-3.03-.69v.5Zm.8 5.57h.5v-1.83h-1v1.83h.5Zm0-1.83h.5c0-.88-.71-1.59-1.6-1.59v1c.34 0 .6.26.6.59h.5Zm-1.1-1.09v-.5h-6.39v1h6.4v-.5Zm-6.39 0h-.5v4.01h1v-4.01h-.5Zm0 4.01v.5h6.4v-1h-6.4v.5Zm6.4 0v.5c.88 0 1.59-.7 1.59-1.59h-1c0 .33-.26.6-.6.6v.5Zm20.61-.02-.49-.08.5.08Zm-1.66 2.46-.19-.46-.53.22.3.5.42-.26Zm1.77 3v.5h.87l-.44-.75-.43.26Zm-3.65 0-.43.26.14.25h.29v-.5Zm-1.54-2.64.43-.25-.14-.25h-.29v.5Zm-5.62 0v-.5h-.5v.5h.5Zm0 2.63v.5h.5V45h-.5Zm-3.21 0h-.5v.5h.5V45Zm0-12.09v-.5h-.5v.5h.5Zm13.9 2.65.49-.1-.5.1Zm-10.69 0v-.5h-.5v.5h.5Zm0 4.01h-.5v.5h.5v-.5Zm10.7-.02-.5-.07a3.31 3.31 0 0 1-.44 1.34c-.22.32-.5.56-.91.73l.2.46.19.46c.58-.24 1.02-.6 1.35-1.1.32-.49.5-1.07.6-1.74l-.49-.08Zm-1.66 2.46-.43.25 1.77 3.01.43-.25.43-.26-1.76-3-.44.25Zm1.77 3v-.5h-3.65v1h3.65v-.5Zm-3.65 0 .43-.24-1.54-2.65-.43.25-.43.25 1.54 2.65.43-.25Zm-1.54-2.64v-.5h-5.62v1h5.62v-.5Zm-5.62 0h-.5V45h1v-2.63h-.5Zm0 2.63v-.5h-3.21v1h3.21V45Zm-3.21 0h.5V32.91h-1V45h.5Zm0-12.09v.5h9.9v-1h-9.9v.5Zm9.9 0v.5c1.17 0 1.95.18 2.49.53.5.33.84.85 1.02 1.72l.49-.1.49-.1a3.44 3.44 0 0 0-1.46-2.36 5.52 5.52 0 0 0-3.03-.69v.5Zm4 2.65-.5.1c.08.4.12 1.32.12 1.9h1c0-.58-.04-1.57-.13-2.1l-.5.1Zm.12 2h-.5c0 .58-.02 1.44-.1 1.91l.5.08.49.09c.1-.57.1-1.51.1-2.07h-.5Zm-10.8-2h-.5v4.01h1v-4.01h-.5Zm0 4.01v.5h6.39v-1h-6.4v.5Zm6.39 0v.5a1.6 1.6 0 0 0 1.59-1.59h-1a.6.6 0 0 1-.6.6v.5Zm1.09-1.09h.5v-1.83h-1v1.83h.5Zm0-1.83h.5c0-.88-.71-1.59-1.6-1.59v1c.34 0 .6.26.6.59h.5Zm-1.1-1.09v-.5h-6.39v1h6.4v-.5Zm16.38-2.65v.5c1.62 0 2.55.38 3.1 1.02.56.67.83 1.73.83 3.36h1c0-1.69-.26-3.06-1.07-4-.82-.97-2.1-1.38-3.86-1.38v.5Zm4.43 4.88h-.5v2.52h1V37.8h-.5Zm0 2.52h-.5c0 1.67-.37 2.67-1.01 3.27-.66.61-1.72.92-3.37.92v1c1.73 0 3.1-.31 4.05-1.19.94-.88 1.33-2.22 1.33-4h-.5ZM205.2 45v-.5h-4.5v1h4.5V45Zm-4.5 0v-.5c-1.64 0-2.69-.3-3.34-.92-.65-.6-1-1.6-1-3.27h-1c0 1.78.37 3.12 1.31 4 .94.88 2.31 1.19 4.04 1.19V45Zm-4.85-4.69h.5V37.8h-1v2.52h.5Zm0-2.52h.5c0-1.63.26-2.7.83-3.36.55-.64 1.48-1.02 3.1-1.02v-1c-1.75 0-3.04.4-3.86 1.37-.8.95-1.07 2.32-1.07 4.01h.5Zm4.43-4.88v.5h5.37v-1h-5.37v.5Zm6.48 7.58h.5v-2.87h-1v2.87h.5Zm0-2.87h.5c0-.68-.1-1.32-.45-1.8-.37-.52-.94-.76-1.66-.76v1c.48 0 .7.15.85.34.16.23.26.61.26 1.22h.5Zm-1.6-2.06v-.5h-4.38v1h4.37v-.5Zm-4.38 0v-.5c-.72 0-1.3.24-1.66.76a3.08 3.08 0 0 0-.45 1.8h1c0-.6.1-1 .26-1.22.14-.2.37-.34.85-.34v-.5Zm-1.61 2.06h-.5v2.87h1v-2.87h-.5Zm0 2.87h-.5c0 .8.12 1.44.53 1.87.42.44 1.01.51 1.6.51v-1c-.55 0-.77-.09-.88-.2-.12-.13-.25-.43-.25-1.18h-.5Zm1.63 1.88v.5h4.34v-1h-4.34v.5Zm4.34 0v.5c.57 0 1.17-.07 1.59-.51.4-.43.53-1.07.53-1.87h-1c0 .75-.13 1.05-.25 1.18-.12.11-.33.2-.88.2v.5Z" mask="url(#c)"/><mask id="d" width="7" height="16" x="212" y="32" fill="#000" maskUnits="userSpaceOnUse"><rect width="7" height="16" x="212" y="32" fill="#fff"/><path d="M212.74 32.91h5.33v8.9c0 3.36-1.25 4.87-4.69 4.87h-.64v-3.32h.23c1.55 0 1.88-.5 1.88-1.64v-6.16h-2.1v-2.65Z"/></mask><path fill="#02FFB4" d="M212.74 32.91h5.33v8.9c0 3.36-1.25 4.87-4.69 4.87h-.64v-3.32h.23c1.55 0 1.88-.5 1.88-1.64v-6.16h-2.1v-2.65Z"/><path fill="#02E5A2" d="M212.74 32.91v-.5h-.5v.5h.5Zm5.33 0h.5v-.5h-.5v.5Zm-5.33 13.77h-.5v.5h.5v-.5Zm0-3.32v-.5h-.5v.5h.5Zm2.11-7.8h.5v-.5h-.5v.5Zm-2.1 0h-.5v.5h.5v-.5Zm0-2.65v.5h5.32v-1h-5.33v.5Zm5.32 0h-.5v8.9h1v-8.9h-.5Zm0 8.9h-.5c0 1.64-.3 2.7-.92 3.35-.6.65-1.6 1.02-3.27 1.02v1c1.78 0 3.12-.39 4-1.34.87-.93 1.19-2.31 1.19-4.04h-.5Zm-4.69 4.87v-.5h-.64v1h.64v-.5Zm-.64 0h.5v-3.32h-1v3.32h.5Zm0-3.32v.5h.23v-1h-.23v.5Zm.23 0v.5c.8 0 1.45-.12 1.87-.54.44-.42.51-1.02.51-1.6h-1c0 .55-.09.77-.2.89-.13.12-.43.25-1.18.25v.5Zm1.88-1.64h.5v-6.16h-1v6.16h.5Zm0-6.16v-.5h-2.1v1h2.1v-.5Zm-2.1 0h.5v-2.65h-1v2.65h.5Z" mask="url(#d)"/><mask id="g" width="112" height="40" x="2" y="10" fill="#000" maskUnits="userSpaceOnUse"><rect width="112" height="40" x="2" y="10" fill="#fff"/><path d="M33.58 48h-8.96L14.37 31.29l-3.18-6.46-.1.1.1.42c.52 2.3.73 3.54.73 6V48h-8.9V12.29h10.36l11.97 19.94.1-.1-.77-9.9V12.3h8.9V48Zm21.25-36.23c10.88 0 17.07 7.8 17.07 18.48 0 10.15-6.24 18.27-17.07 18.27S37.75 40.4 37.75 30.25c0-10.67 6.2-18.48 17.08-18.48Zm0 8.07c-4.84 0-5.36 6.97-5.36 10.46 0 3.44.36 10.05 5.36 10.05s5.36-6.61 5.36-10.05c0-3.49-.52-10.46-5.36-10.46Zm36.3 1.04V48H80.7V20.88h-7.5v-8.6h25.25v8.6h-7.34Zm21.8-8.6V48H101.9V12.29h11.04Z"/></mask><path fill="url(#e)" d="M33.58 48h-8.96L14.37 31.29l-3.18-6.46-.1.1.1.42c.52 2.3.73 3.54.73 6V48h-8.9V12.29h10.36l11.97 19.94.1-.1-.77-9.9V12.3h8.9V48Zm21.25-36.23c10.88 0 17.07 7.8 17.07 18.48 0 10.15-6.24 18.27-17.07 18.27S37.75 40.4 37.75 30.25c0-10.67 6.2-18.48 17.08-18.48Zm0 8.07c-4.84 0-5.36 6.97-5.36 10.46 0 3.44.36 10.05 5.36 10.05s5.36-6.61 5.36-10.05c0-3.49-.52-10.46-5.36-10.46Zm36.3 1.04V48H80.7V20.88h-7.5v-8.6h25.25v8.6h-7.34Zm21.8-8.6V48H101.9V12.29h11.04Z"/><path fill="url(#f)" d="M33.58 48v1h1v-1h-1Zm-8.96 0-.85.52.3.48h.55v-1ZM14.37 31.29l-.9.44.02.04.03.04.85-.52Zm-3.18-6.46.9-.44-.62-1.25-.98.99.7.7Zm-.1.1-.7-.7-.4.4.13.55.97-.24Zm.1.42.98-.22v-.02l-.98.24ZM11.92 48v1h1v-1h-1Zm-8.9 0h-1v1h1v-1Zm0-35.71v-1h-1v1h1Zm10.36 0 .86-.52-.3-.48h-.56v1Zm11.97 19.94-.85.51.65 1.1.91-.9-.7-.71Zm.1-.1.71.7.33-.33-.04-.46-1 .08Zm-.77-9.9h-1v.08l1-.08Zm0-9.94v-1h-1v1h1Zm8.9 0h1v-1h-1v1Zm0 35.71v-1h-8.96v2h8.96v-1Zm-8.96 0 .86-.52-10.26-16.71-.85.52-.85.52 10.25 16.71.85-.52ZM14.37 31.29l.9-.44-3.18-6.46-.9.44-.9.45 3.18 6.45.9-.44Zm-3.18-6.46-.7-.7-.1.1.7.7.7.71.11-.1-.7-.7Zm-.1.1-.97.25.1.42.97-.25.97-.24-.1-.41-.97.24Zm.1.42-.97.23c.5 2.24.7 3.41.7 5.76h2c0-2.54-.22-3.87-.75-6.2l-.98.21Zm.73 6h-1V48h2V31.34h-1Zm0 16.65v-1h-8.9v2h8.9v-1Zm-8.9 0h1V12.29h-2V48h1Zm0-35.71v1h10.36v-2H3.02v1Zm10.36 0-.86.51L24.5 32.74l.85-.51.86-.52-11.97-19.94-.86.52Zm11.97 19.94.71.7.1-.1-.7-.7-.71-.72-.1.1.7.72Zm.1-.1 1-.09-.78-9.89-1 .08-1 .08.79 9.9 1-.09Zm-.77-9.9h1V12.3h-2v9.94h1Zm0-9.94v1h8.9v-2h-8.9v1Zm8.9 0h-1V48h2V12.29h-1Zm21.25-.52v1c5.18 0 9.17 1.85 11.87 4.9 2.71 3.06 4.2 7.43 4.2 12.58h2c0-5.53-1.6-10.4-4.7-13.9-3.12-3.53-7.68-5.58-13.37-5.58v1ZM71.9 30.25h-1c0 4.87-1.5 9.2-4.22 12.28-2.72 3.07-6.7 5-11.85 5v2c5.68 0 10.23-2.15 13.35-5.68 3.1-3.5 4.72-8.33 4.72-13.6h-1ZM54.83 48.52v-1c-5.15 0-9.14-1.92-11.85-5-2.73-3.08-4.23-7.4-4.23-12.27h-2c0 5.27 1.63 10.1 4.73 13.6 3.12 3.53 7.67 5.67 13.35 5.67v-1ZM37.75 30.25h1c0-5.15 1.5-9.52 4.2-12.58 2.7-3.05 6.7-4.9 11.88-4.9v-2c-5.7 0-10.25 2.05-13.37 5.57-3.1 3.51-4.7 8.38-4.7 13.9h1Zm17.08-10.41v-1c-1.48 0-2.67.54-3.58 1.42a7.9 7.9 0 0 0-1.87 3.18c-.79 2.34-.91 5.1-.91 6.86h2c0-1.72.13-4.2.8-6.22.35-1 .8-1.82 1.37-2.38a2.98 2.98 0 0 1 2.19-.86v-1ZM49.47 30.3h-1c0 1.73.08 4.38.86 6.64A7.3 7.3 0 0 0 51.2 40a5.2 5.2 0 0 0 3.62 1.35v-2c-1 0-1.72-.33-2.27-.83a5.33 5.33 0 0 1-1.34-2.23c-.66-1.91-.75-4.28-.75-5.99h-1Zm5.36 10.05v1c1.5 0 2.7-.5 3.62-1.35a7.3 7.3 0 0 0 1.88-3.06c.77-2.26.86-4.91.86-6.64h-2c0 1.71-.1 4.08-.75 5.99a5.33 5.33 0 0 1-1.34 2.23 3.2 3.2 0 0 1-2.27.83v1Zm5.36-10.05h1c0-1.77-.13-4.52-.92-6.86a7.9 7.9 0 0 0-1.86-3.18 4.98 4.98 0 0 0-3.58-1.42v2c.94 0 1.63.32 2.18.86a5.94 5.94 0 0 1 1.37 2.38c.68 2.02.81 4.5.81 6.22h1Zm30.93-9.42v-1h-1v1h1Zm0 27.12v1h1v-1h-1Zm-10.4 0h-1v1h1v-1Zm0-27.12h1v-1h-1v1Zm-7.5 0h-1v1h1v-1Zm0-8.6v-1h-1v1h1Zm25.24 0h1v-1h-1v1Zm0 8.6v1h1v-1h-1Zm-7.34 0h-1V48h2V20.88h-1Zm0 27.12v-1h-10.4v2h10.4v-1Zm-10.4 0h1V20.88h-2V48h1Zm0-27.12v-1h-7.5v2h7.5v-1Zm-7.5 0h1v-8.6h-2v8.6h1Zm0-8.6v1h25.24v-2H73.22v1Zm25.24 0h-1v8.6h2v-8.6h-1Zm0 8.6v-1h-7.34v2h7.34v-1Zm14.48-8.6h1v-1h-1v1Zm0 35.72v1h1v-1h-1Zm-11.04 0h-1v1h1v-1Zm0-35.71v-1h-1v1h1Zm11.04 0h-1V48h2V12.29h-1Zm0 35.71v-1H101.9v2h11.04v-1Zm-11.04 0h1V12.29h-2V48h1Zm0-35.71v1h11.04v-2H101.9v1Z" mask="url(#g)"/><mask id="h" width="35" height="40" x="115.13" y="10" fill="#000" maskUnits="userSpaceOnUse"><rect width="35" height="40" x="115.13" y="10" fill="#fff"/><path d="m116.76 37.64 10.15-1.82c.94 3.17 3.33 4.32 6.5 4.32 1.41 0 4.22-.2 4.22-2.19 0-2.18-2.76-2.6-4.37-2.91-6.72-1.3-14.68-3.13-14.68-11.61a11.1 11.1 0 0 1 4.58-8.96c2.92-2.03 6.72-2.7 10.26-2.7 6.2 0 12.18 2.55 14.37 8.74l-9.06 2.76c-1.04-2.65-3.02-3.59-5.78-3.59-1.46 0-3.54.42-3.54 2.29s2.6 2.24 3.95 2.55c3.39.68 6.98 1.25 10.1 2.86a9.94 9.94 0 0 1 5.31 9.11c0 8.6-8.53 12.03-15.93 12.03-7.5 0-14.16-3.12-16.08-10.88Z"/></mask><path fill="#02FFB4" d="m116.76 37.64 10.15-1.82c.94 3.17 3.33 4.32 6.5 4.32 1.41 0 4.22-.2 4.22-2.19 0-2.18-2.76-2.6-4.37-2.91-6.72-1.3-14.68-3.13-14.68-11.61a11.1 11.1 0 0 1 4.58-8.96c2.92-2.03 6.72-2.7 10.26-2.7 6.2 0 12.18 2.55 14.37 8.74l-9.06 2.76c-1.04-2.65-3.02-3.59-5.78-3.59-1.46 0-3.54.42-3.54 2.29s2.6 2.24 3.95 2.55c3.39.68 6.98 1.25 10.1 2.86a9.94 9.94 0 0 1 5.31 9.11c0 8.6-8.53 12.03-15.93 12.03-7.5 0-14.16-3.12-16.08-10.88Z"/><path fill="#02E5A2" d="m116.76 37.64-.18-.98-1.05.18.26 1.04.97-.24Zm10.15-1.82.96-.28-.26-.86-.88.15.18.99Zm6.35-.78-.19.98.19-.98Zm-10.1-20.57-.57-.82.57.82Zm24.63 6.04.29.96 1-.3-.35-.99-.94.33Zm-9.06 2.76-.94.37.34.86.89-.27-.3-.96Zm-5.37 1.25-.22.98h.03l.2-.98Zm10.1 2.86.48-.88h-.01l-.47.88Zm-26.7 10.26.17.98 10.15-1.82-.17-.98-.18-.99-10.15 1.83.18.98Zm10.15-1.82-.96.28c.53 1.8 1.5 3.1 2.85 3.92a8.72 8.72 0 0 0 4.62 1.12v-2a6.76 6.76 0 0 1-3.57-.82 4.59 4.59 0 0 1-1.98-2.78l-.96.28Zm6.5 4.32v1a9.6 9.6 0 0 0 2.96-.4 3.76 3.76 0 0 0 1.52-.92c.46-.48.74-1.1.74-1.87h-2c0 .23-.07.37-.18.49a1.8 1.8 0 0 1-.72.4c-.72.24-1.63.3-2.31.3v1Zm4.22-2.19h1c0-1.64-1.09-2.56-2.16-3.06-1.03-.49-2.27-.69-3.02-.83l-.19.98-.19.98c.86.17 1.8.33 2.56.68.71.33 1 .71 1 1.25h1Zm-4.37-2.91.19-.98c-3.38-.66-6.88-1.42-9.54-3a8.88 8.88 0 0 1-3.13-2.95 8.71 8.71 0 0 1-1.2-4.68h-2c0 2.28.54 4.17 1.5 5.73.95 1.56 2.3 2.73 3.81 3.63 3 1.78 6.85 2.58 10.18 3.23l.19-.98Zm-14.68-11.61h1c0-3.18 1.57-6.3 4.16-8.14l-.58-.82-.58-.81a12.1 12.1 0 0 0-5 9.77h1Zm4.58-8.96.57.82c2.68-1.86 6.24-2.52 9.69-2.52v-2c-3.64 0-7.68.69-10.83 2.88l.57.82Zm10.26-2.7v1c5.96 0 11.43 2.44 13.42 8.08l.94-.34.95-.33c-2.38-6.75-8.89-9.41-15.31-9.41v1Zm14.37 8.74-.3-.95-9.06 2.76.3.95.29.96 9.06-2.76-.3-.96Zm-9.06 2.76.93-.36a6.3 6.3 0 0 0-2.67-3.3 7.89 7.89 0 0 0-4.04-.93v2c1.27 0 2.26.22 3.03.66a4.32 4.32 0 0 1 1.81 2.3l.94-.37Zm-5.78-3.59v-1c-.8 0-1.85.1-2.75.54a2.91 2.91 0 0 0-1.79 2.75h2c0-.27.07-.44.16-.56.1-.14.25-.27.5-.39.5-.24 1.21-.34 1.88-.34v-1Zm-3.54 2.29h-1c0 1.53 1.11 2.35 2.06 2.78.94.41 2.08.6 2.67.75l.22-.98.23-.97c-.76-.18-1.6-.32-2.3-.63-.7-.3-.88-.61-.88-.95h-1Zm3.95 2.55-.2.98c3.46.7 6.88 1.24 9.84 2.77l.46-.89.46-.88c-3.28-1.7-7.04-2.3-10.36-2.96l-.2.98Zm10.1 2.86-.47.89a8.94 8.94 0 0 1 4.78 8.22h2c0-4.24-2-7.92-5.83-9.99l-.48.88Zm5.31 9.11h-1c0 3.9-1.9 6.61-4.72 8.4-2.86 1.8-6.64 2.63-10.2 2.63v2c3.82 0 8-.89 11.27-2.95 3.3-2.08 5.65-5.38 5.65-10.08h-1Zm-15.93 12.03v-1c-3.62 0-6.96-.75-9.6-2.38a12.16 12.16 0 0 1-5.51-7.74l-.97.24-.97.24a14.16 14.16 0 0 0 6.4 8.96c3.04 1.87 6.78 2.68 10.65 2.68v-1Z" mask="url(#h)"/><mask id="k" width="48" height="14" x="220" y="32" fill="#000" maskUnits="userSpaceOnUse"><rect width="48" height="14" x="220" y="32" fill="#fff"/><path d="M235.39 35.56h-10.8v2.07h9.12v2.65h-9.13v2.1h10.8V45h-14.01V32.91h14.02v2.65Zm6.44-2.65h9.6v4.34h-3.22v-1.69h-5.88c-1.2 0-1.61.8-1.61 2.06v2.87c0 1.55.5 1.88 1.62 1.88h5.87v-1.7h3.21v4.35h-9.16c-3.37 0-4.86-1.26-4.86-4.7v-2.53c0-3.32 1.05-4.88 4.42-4.88Zm25.22 0v2.65h-5.39V45h-3.23v-9.44h-5.4v-2.65h14.03Z"/></mask><path fill="url(#i)" d="M235.39 35.56h-10.8v2.07h9.12v2.65h-9.13v2.1h10.8V45h-14.01V32.91h14.02v2.65Zm6.44-2.65h9.6v4.34h-3.22v-1.69h-5.88c-1.2 0-1.61.8-1.61 2.06v2.87c0 1.55.5 1.88 1.62 1.88h5.87v-1.7h3.21v4.35h-9.16c-3.37 0-4.86-1.26-4.86-4.7v-2.53c0-3.32 1.05-4.88 4.42-4.88Zm25.22 0v2.65h-5.39V45h-3.23v-9.44h-5.4v-2.65h14.03Z"/><path fill="url(#j)" d="M235.39 35.56v.5h.5v-.5h-.5Zm-10.8 0v-.5h-.5v.5h.5Zm0 2.07h-.5v.5h.5v-.5Zm9.12 0h.5v-.5h-.5v.5Zm0 2.65v.5h.5v-.5h-.5Zm-9.13 0v-.5h-.5v.5h.5Zm0 2.1h-.5v.5h.5v-.5Zm10.8 0h.5v-.5h-.5v.5Zm0 2.62v.5h.5V45h-.5Zm-14.01 0h-.5v.5h.5V45Zm0-12.09v-.5h-.5v.5h.5Zm14.02 0h.5v-.5h-.5v.5Zm0 2.65v-.5h-10.8v1h10.8v-.5Zm-10.8 0h-.5v2.07h1v-2.07h-.5Zm0 2.07v.5h9.12v-1h-9.13v.5Zm9.12 0h-.5v2.65h1v-2.65h-.5Zm0 2.65v-.5h-9.13v1h9.13v-.5Zm-9.13 0h-.5v2.1h1v-2.1h-.5Zm0 2.1v.5h10.8v-1h-10.8v.5Zm10.8 0h-.5V45h1v-2.63h-.5Zm0 2.62v-.5h-14.01v1h14.02V45Zm-14.01 0h.5V32.91h-1V45h.5Zm0-12.09v.5h14.02v-1h-14.02v.5Zm14.02 0h-.5v2.65h1v-2.65h-.5Zm16.03 0h.5v-.5h-.5v.5Zm0 4.34v.5h.5v-.5h-.5Zm-3.21 0h-.5v.5h.5v-.5Zm0-1.69h.5v-.5h-.5v.5Zm0 6.81v.5h.5v-.5h-.5Zm0-1.7v-.51h-.5v.5h.5Zm3.21-.01h.5v-.5h-.5v.5Zm0 4.36v.5h.5v-.5h-.5Zm-9.6-12.1v.5h9.6v-1h-9.6v.5Zm9.6 0h-.5v4.33h1v-4.34h-.5Zm0 4.33v-.5h-3.21v1h3.21v-.5Zm-3.21 0h.5v-1.69h-1v1.7h.5Zm0-1.69v-.5h-5.88v1h5.88v-.5Zm-5.88 0v-.5c-.72 0-1.3.25-1.66.77a3.07 3.07 0 0 0-.45 1.79h1c0-.6.1-.98.26-1.22.14-.2.37-.34.85-.34v-.5Zm-1.61 2.06h-.5v2.87h1v-2.87h-.5Zm0 2.87h-.5c0 .8.12 1.44.53 1.87.42.44 1.01.51 1.6.51v-1c-.55 0-.77-.09-.88-.2-.12-.13-.25-.43-.25-1.18h-.5Zm1.62 1.88v.5h5.87v-1h-5.87v.5Zm5.87 0h.5v-1.7h-1v1.7h.5Zm0-1.7v.49h3.21v-1h-3.21v.5Zm3.21-.01h-.5v4.36h1v-4.36h-.5Zm0 4.36v-.5h-9.16v1h9.16v-.5Zm-9.16 0v-.5c-1.64 0-2.7-.31-3.35-.93-.65-.6-1.01-1.61-1.01-3.28h-1c0 1.78.38 3.13 1.32 4.01.94.88 2.3 1.2 4.04 1.2v-.5Zm-4.86-4.7h.5v-2.53h-1v2.52h.5Zm0-2.53h.5c0-1.63.26-2.7.83-3.36.55-.64 1.48-1.02 3.1-1.02v-1c-1.76 0-3.04.4-3.86 1.37-.8.95-1.07 2.32-1.07 4.01h.5Zm29.66-4.88h.5v-.5h-.5v.5Zm0 2.65v.5h.5v-.5h-.5Zm-5.4 0v-.5h-.5v.5h.5Zm0 9.44v.5h.5V45h-.5Zm-3.23 0h-.5v.5h.5V45Zm0-9.44h.5v-.5h-.5v.5Zm-5.4 0h-.5v.5h.5v-.5Zm0-2.65v-.5h-.5v.5h.5Zm14.03 0h-.5v2.65h1v-2.65h-.5Zm0 2.65v-.5h-5.4v1h5.4v-.5Zm-5.4 0h-.5V45h1v-9.44h-.5Zm0 9.44v-.5h-3.23v1h3.23V45Zm-3.23 0h.5v-9.44h-1V45h.5Zm0-9.44v-.5h-5.4v1h5.4v-.5Zm-5.4 0h.5v-2.65h-1v2.65h.5Zm0-2.65v.5h14.03v-1h-14.03v.5Z" mask="url(#k)"/><defs><linearGradient id="a" x1="163.51" x2="190.01" y1="32.89" y2="58.57" gradientUnits="userSpaceOnUse"><stop offset=".44" stop-color="#DDD"/><stop offset=".49" stop-color="#EEE"/><stop offset=".56" stop-color="#CECECE"/><stop offset=".76" stop-color="#CECECE"/><stop offset=".83" stop-color="#EEE"/><stop offset=".93" stop-color="#CECECE"/></linearGradient><linearGradient id="b" x1="187" x2="187" y1="29" y2="48" gradientUnits="userSpaceOnUse"><stop offset=".02" stop-color="#A1A1A1"/><stop offset=".44" stop-color="#C4C4C4"/><stop offset="1" stop-color="#BEBEBE"/></linearGradient><linearGradient id="e" x1="3.5" x2="83.5" y1="12.5" y2="68.5" gradientUnits="userSpaceOnUse"><stop offset=".44" stop-color="#DDD"/><stop offset=".49" stop-color="#EEE"/><stop offset=".56" stop-color="#CECECE"/><stop offset=".76" stop-color="#CECECE"/><stop offset=".83" stop-color="#EEE"/><stop offset=".93" stop-color="#CECECE"/></linearGradient><linearGradient id="f" x1="56" x2="31.5" y1="10" y2="48" gradientUnits="userSpaceOnUse"><stop stop-color="#BDBDBD"/><stop offset=".45" stop-color="#9A9A9A"/><stop offset="1" stop-color="#CACACA"/></linearGradient><linearGradient id="i" x1="221.45" x2="247.9" y1="32.89" y2="57.49" gradientUnits="userSpaceOnUse"><stop offset=".44" stop-color="#DDD"/><stop offset=".49" stop-color="#EEE"/><stop offset=".56" stop-color="#CECECE"/><stop offset=".76" stop-color="#CECECE"/><stop offset=".83" stop-color="#EEE"/><stop offset=".93" stop-color="#CECECE"/></linearGradient><linearGradient id="j" x1="244" x2="244" y1="29" y2="48" gradientUnits="userSpaceOnUse"><stop offset=".02" stop-color="#A1A1A1"/><stop offset=".44" stop-color="#C4C4C4"/><stop offset="1" stop-color="#BEBEBE"/></linearGradient></defs></svg>