<svg xmlns="http://www.w3.org/2000/svg" width="825" height="294" fill="none"><path fill="#22272F" d="M0 1h144v48H0z"/><path fill="#4C566A" d="M0 50h144v48H0z"/><path fill="#2B303B" d="M0 99h144v48H0z"/><path fill="#333A47" d="M0 245h144v48H0z"/><path fill="#2B303B" d="M0 197h144v48H0z"/><path fill="#4C566A" d="M0 148h144v48H0z"/><path fill="#22272F" d="M145 1h130v48H145z"/><path fill="#4C566A" d="M145 50h130v48H145z"/><path fill="#2B303B" d="M145 99h130v48H145z"/><path fill="#333A47" d="M145 245h130v48H145z"/><path fill="#2B303B" d="M145 197h130v48H145z"/><path fill="#4C566A" d="M145 148h130v48H145z"/><path fill="#22272F" d="M276 1h188v48H276z"/><path fill="#4C566A" d="M276 50h188v48H276z"/><path fill="#2B303B" d="M276 99h188v48H276z"/><path fill="#333A47" d="M276 245h188v48H276z"/><path fill="#2B303B" d="M276 197h188v48H276z"/><path fill="#4C566A" d="M276 148h188v48H276z"/><path fill="#22272F" d="M658 1h166v48H658z"/><path fill="#4C566A" d="M658 50h166v48H658z"/><path fill="#2B303B" d="M658 99h166v48H658z"/><path fill="#333A47" d="M658 245h166v48H658z"/><path fill="#2B303B" d="M658 197h166v48H658z"/><path fill="#4C566A" d="M658 148h166v48H658z"/><path fill="#22272F" d="M465 1h192v48H465z"/><path fill="#4C566A" d="M465 50h192v48H465z"/><path fill="#2B303B" d="M465 99h192v48H465z"/><path fill="#333A47" d="M465 245h192v48H465z"/><path fill="#2B303B" d="M465 197h192v48H465z"/><path fill="#4C566A" d="M465 148h192v48H465z"/><path fill="#3B4252" d="M144 1h1v292h-1zM657 1h1v292h-1zM0 1h1v292H0zM824 1h1v292h-1zM275 1h1v292h-1zM464 1h1v292h-1z"/><path fill="#3B4252" d="M1 148v-1h823v1zM1 99v-1h823v1zM1 1V0h824v1zM1 50v-1h823v1zM1 197v-1h823v1zM1 245v-1h823v1zM0 294v-1h825v1z"/><path fill="#EBCB8B" d="M325.7 34V16.5h6.6a7 7 0 0 1 3.3.8 5 5 0 0 1 2.1 2c.5 1 .7 2 .7 3 0 1.1-.2 2.1-.7 3a5 5 0 0 1-2 2c-1 .6-2.1.8-3.5.8H328v-2.6h3.9a4 4 0 0 0 2-.4c.4-.3.8-.7 1-1.1.3-.5.4-1 .4-1.7 0-.6-.1-1.1-.4-1.6-.2-.5-.6-.9-1-1.1a4 4 0 0 0-2-.4h-3V34h-3Zm15.3 0V21h3v2h.2a3.3 3.3 0 0 1 3.2-2.3 7.1 7.1 0 0 1 1.1.1v2.8h-.6l-.8-.1c-.6 0-1.1 0-1.6.3a2.7 2.7 0 0 0-1.4 2.5V34h-3Zm14.7.3c-1.3 0-2.4-.3-3.3-.9-1-.6-1.7-1.3-2.2-2.3-.5-1-.8-2.2-.8-3.6 0-1.3.3-2.5.8-3.5s1.3-1.9 2.2-2.4c1-.6 2-.9 3.3-.9 1.3 0 2.4.3 3.3.9 1 .5 1.7 1.3 2.2 2.4.5 1 .8 2.2.8 3.5 0 1.4-.3 2.5-.8 3.6-.5 1-1.2 1.7-2.2 2.3-.9.6-2 .9-3.3.9Zm0-2.5c.7 0 1.3-.2 1.8-.6.4-.4.8-.9 1-1.5a6.4 6.4 0 0 0 0-4.3c-.2-.7-.6-1.2-1-1.6-.5-.4-1-.6-1.8-.6-.7 0-1.3.2-1.7.6-.5.4-.9.9-1 1.5a6.5 6.5 0 0 0 0 4.3c.1.7.5 1.2 1 1.6.4.4 1 .6 1.7.6Zm9-10.9h3v13.9c0 .9-.2 1.7-.5 2.3-.4.6-1 1-1.6 1.4a6 6 0 0 1-2.8.4h-.3v-2.5a3.5 3.5 0 0 0 .5 0c.5 0 1-.1 1.2-.4.3-.3.4-.7.4-1.3V21Zm1.4-1.8c-.5 0-.9-.2-1.2-.5-.4-.4-.5-.8-.5-1.2 0-.5.1-.9.5-1.2.3-.3.7-.5 1.2-.5s1 .2 1.3.5c.3.3.5.7.5 1.2 0 .4-.2.8-.5 1.2-.4.3-.8.5-1.3.5Zm10.6 15.2c-1.4 0-2.5-.3-3.4-.9-1-.5-1.7-1.3-2.2-2.3-.5-1-.8-2.2-.8-3.6 0-1.3.3-2.5.8-3.5a5.8 5.8 0 0 1 5.4-3.3c.8 0 1.6.2 2.3.4.7.3 1.3.7 1.9 1.2.6.6 1 1.3 1.3 2 .3 1 .5 1.9.5 3v1h-10.7v-2h7.7c0-.7-.1-1.2-.4-1.7-.2-.4-.6-.8-1-1a3 3 0 0 0-1.6-.5 3 3 0 0 0-1.6.5c-.5.3-.9.7-1.1 1.2-.3.5-.4 1-.4 1.6v1.8c0 .8.1 1.4.4 2 .3.5.6 1 1.1 1.2a3.7 3.7 0 0 0 3 .2c.4 0 .7-.3 1-.5l.6-1 2.9.4c-.2.8-.6 1.4-1 2a5 5 0 0 1-2 1.3c-.8.3-1.7.5-2.7.5Zm14.1 0c-1.3 0-2.4-.3-3.4-1-.9-.5-1.6-1.3-2.1-2.3-.5-1-.8-2.2-.8-3.5 0-1.3.3-2.5.8-3.5s1.2-1.8 2.2-2.4c.9-.6 2-.9 3.3-.9 1 0 2 .2 2.8.6a4.8 4.8 0 0 1 2.8 4.1h-3c0-.6-.3-1.1-.8-1.5-.4-.5-1-.7-1.8-.7-.6 0-1.2.2-1.6.5-.5.4-.9.9-1.1 1.5a6 6 0 0 0-.4 2.3c0 .8 0 1.6.4 2.3.2.6.6 1 1 1.4.5.4 1 .5 1.7.5.5 0 .9 0 1.2-.2.4-.2.7-.4 1-.8l.5-1.2h3c-.2 1-.4 1.8-1 2.5-.4.7-1 1.3-1.8 1.7-.8.4-1.8.6-2.9.6Zm14.7-13.4v2.4H398v-2.4h7.5Zm-5.7-3.1h3.1V30c0 .4 0 .7.2 1l.5.4h.7a3 3 0 0 0 .9 0l.5 2.4a6.9 6.9 0 0 1-1.8.3 5 5 0 0 1-2-.4c-.7-.2-1.2-.6-1.6-1.2-.3-.5-.5-1.2-.5-2V17.8Zm18.4 6.6-2.8.3a2.2 2.2 0 0 0-1.2-1.4c-.3-.2-.7-.3-1.2-.3a3 3 0 0 0-1.6.5c-.5.2-.7.6-.7 1s.2.7.5 1c.2.2.7.4 1.4.6l2.2.4c1.3.3 2.2.7 2.8 1.3a3 3 0 0 1 .9 2.3c0 .8-.2 1.5-.7 2.2-.5.6-1.2 1-2 1.4-.8.4-1.8.6-2.9.6-1.6 0-2.9-.4-3.9-1a4 4 0 0 1-1.7-2.9l3-.3c.1.6.4 1 .9 1.4.4.3 1 .4 1.7.4a3 3 0 0 0 1.8-.4c.4-.3.6-.7.6-1.1 0-.4-.1-.7-.4-1a3 3 0 0 0-1.3-.5l-2.3-.5a5.3 5.3 0 0 1-2.7-1.3c-.6-.6-1-1.4-1-2.4 0-.8.3-1.5.7-2 .5-.7 1-1.1 1.9-1.5.8-.3 1.7-.5 2.8-.5a6 6 0 0 1 3.6 1c.9.7 1.4 1.6 1.6 2.7Z"/><path fill="#fff" d="M345.7 70c-.1-.5-.4-1-.6-1.3a4.2 4.2 0 0 0-2.3-1.8 5.2 5.2 0 0 0-4.3.6c-.8.5-1.4 1.2-1.8 2.2-.5 1-.7 2.2-.7 3.6s.2 2.6.7 3.6c.4 1 1 1.7 1.9 2.2a5 5 0 0 0 2.7.7 5 5 0 0 0 2.5-.5 4 4 0 0 0 1.6-1.7c.4-.7.6-1.5.6-2.5l.7.1h-5v-2.1h6.9v2c0 1.4-.4 2.7-1 3.8-.6 1-1.5 1.9-2.6 2.5-1 .5-2.3.8-3.7.8-1.6 0-3-.3-4.2-1a7.4 7.4 0 0 1-2.7-3.1c-.7-1.4-1-3-1-4.8 0-1.4.1-2.7.5-3.8.4-1 1-2 1.7-2.8.7-.8 1.5-1.4 2.4-1.8 1-.4 2-.6 3.2-.6 1 0 1.8.1 2.6.4a7.1 7.1 0 0 1 3.8 3c.4.7.7 1.5.8 2.4h-2.7Zm9.8 12.3c-.8 0-1.6-.2-2.3-.5-.6-.3-1.2-.7-1.5-1.3-.4-.6-.6-1.3-.6-2.2 0-.7.1-1.3.4-1.8.3-.5.7-.9 1.2-1.2a6 6 0 0 1 1.6-.6l1.8-.3 1.9-.2c.5 0 .8-.2 1-.3.3-.2.4-.4.4-.7 0-.8-.2-1.4-.6-1.8-.4-.4-1-.6-1.9-.6-.8 0-1.5.2-2 .6a3 3 0 0 0-1 1.2l-2.4-.5a4.6 4.6 0 0 1 3.1-3 7.4 7.4 0 0 1 4-.2c.5.1 1 .4 1.6.7.5.3 1 .8 1.3 1.4.3.6.5 1.4.5 2.3V82h-2.5v-1.8h-.1c-.2.3-.4.7-.8 1a4 4 0 0 1-1.2.8 5 5 0 0 1-1.9.3Zm.6-2c.7 0 1.3-.2 1.8-.5a3 3 0 0 0 1.5-2.5v-1.7l-.5.2-.9.2a110.5 110.5 0 0 1-3.1.6l-1 .6c-.2.3-.3.7-.3 1.1 0 .7.2 1.1.7 1.5.4.3 1 .4 1.8.4Zm9.3 1.7V69h2.4v2h.2c.2-.7.7-1.2 1.3-1.6a4 4 0 0 1 2.2-.7c.9 0 1.6.2 2.2.7.6.4 1 1 1.3 1.6h.2c.3-.7.8-1.2 1.5-1.6.7-.5 1.5-.7 2.4-.7a4 4 0 0 1 3 1.2c.7.7 1 1.8 1 3.3V82h-2.5v-8.5c0-1-.2-1.6-.7-2-.5-.4-1-.6-1.8-.6s-1.4.3-1.9.8c-.4.5-.7 1.2-.7 2V82H373v-8.7c0-.7-.2-1.3-.7-1.7a2.5 2.5 0 0 0-3-.3c-.5.3-.8.6-1 1-.3.5-.4 1-.4 1.6V82h-2.5Zm26.8.3c-1.3 0-2.4-.3-3.3-.9-1-.5-1.7-1.3-2.2-2.3a8 8 0 0 1-.7-3.6 8 8 0 0 1 .7-3.5c.5-1 1.2-1.8 2.1-2.4 1-.6 2-.9 3.2-.9.8 0 1.5.2 2.2.4a5.2 5.2 0 0 1 3.1 3.2c.4.8.5 1.8.5 3v1h-10.4v-2h8c0-.7-.2-1.3-.5-1.8a3 3 0 0 0-2.9-1.7c-.7 0-1.3.2-1.8.6-.6.3-1 .8-1.3 1.3a4 4 0 0 0-.4 1.9V76c0 1 .2 1.7.5 2.3.3.6.7 1 1.3 1.4.5.3 1.2.5 2 .5l1.3-.2 1-.7c.3-.3.5-.6.6-1l2.5.4c-.2.7-.6 1.4-1 1.9a5 5 0 0 1-2 1.2 7 7 0 0 1-2.5.5ZM410.5 72l-2.3.4-.5-.8-.8-.7a3 3 0 0 0-1.4-.2c-.7 0-1.3.1-1.8.4-.5.4-.7.8-.7 1.3 0 .4.2.8.5 1 .3.3.8.5 1.6.7l2 .5c1.2.2 2.1.7 2.7 1.3.6.5 1 1.3 1 2.2 0 .8-.3 1.5-.8 2.1-.4.6-1 1.1-1.8 1.4a7 7 0 0 1-2.8.6c-1.5 0-2.7-.3-3.6-1a4 4 0 0 1-1.7-2.7l2.4-.3c.2.6.5 1 1 1.4.5.3 1 .5 1.8.5.9 0 1.5-.2 2-.5.5-.4.8-.8.8-1.3 0-.4-.2-.7-.5-1a3 3 0 0 0-1.4-.7l-2.2-.4a5.3 5.3 0 0 1-2.7-1.4c-.6-.6-.8-1.4-.8-2.3 0-.8.2-1.4.6-2 .4-.6 1-1 1.8-1.4.8-.3 1.6-.5 2.6-.5 1.4 0 2.5.3 3.3 1 .9.6 1.4 1.4 1.7 2.4Zm4.7 10c-.5 0-.9-.1-1.2-.4-.3-.4-.5-.8-.5-1.2 0-.5.2-1 .5-1.2.3-.4.7-.5 1.2-.5s.9.1 1.2.5c.3.3.5.7.5 1.2 0 .3 0 .6-.2.8-.2.3-.4.5-.7.6-.2.2-.5.3-.8.3Zm0-9.5c-.5 0-.9-.1-1.2-.5-.3-.3-.5-.7-.5-1.2 0-.4.2-.8.5-1.2.3-.3.7-.5 1.2-.5s.9.2 1.2.5c.3.4.5.8.5 1.2 0 .3 0 .6-.2.9-.2.2-.4.5-.7.6-.2.2-.5.2-.8.2ZM703.4 69.1c0-.8-.4-1.4-1-1.8-.7-.5-1.6-.7-2.6-.7-.7 0-1.3.1-1.8.3-.6.2-1 .6-1.3 1-.2.3-.4.8-.4 1.3 0 .4.1.7.3 1l.8.8 1 .5 1 .3 1.8.5 1.7.5 1.6 1c.5.3 1 .8 1.2 1.4.4.5.5 1.2.5 2 0 1-.2 1.8-.8 2.6-.5.8-1.2 1.4-2.2 1.8-1 .5-2 .7-3.4.7s-2.5-.2-3.4-.6c-1-.4-1.7-1-2.3-1.8-.5-.8-.8-1.7-.9-2.7h2.7c0 .6.2 1.1.6 1.6.3.4.8.7 1.4.9.5.2 1.2.3 1.8.3.8 0 1.4-.1 2-.4.6-.2 1-.5 1.4-1 .3-.4.5-.9.5-1.4 0-.6-.1-1-.4-1.3-.3-.3-.7-.6-1.2-.8-.5-.3-1-.4-1.7-.6l-2-.6a8 8 0 0 1-3.4-1.7 3.8 3.8 0 0 1-1.2-2.9c0-1 .3-1.9.8-2.6.6-.8 1.3-1.3 2.2-1.8 1-.4 2-.6 3.2-.6 1.2 0 2.2.2 3.1.6 1 .4 1.6 1 2.2 1.7.5.8.8 1.6.8 2.5h-2.6Zm11.3 13.2a6 6 0 0 1-3.3-.9c-1-.6-1.6-1.4-2.1-2.4a8 8 0 0 1-.7-3.5c0-1.3.2-2.5.7-3.5.5-1 1.2-1.8 2.1-2.4 1-.6 2-.9 3.2-.9 1 0 2 .2 2.7.6.8.4 1.4.9 1.9 1.5.5.7.8 1.5.8 2.3h-2.4a3 3 0 0 0-1-1.5c-.5-.5-1.1-.7-2-.7-.6 0-1.2.2-1.8.5-.5.4-1 1-1.2 1.6a6 6 0 0 0-.5 2.5c0 1 .2 1.7.5 2.4s.7 1.3 1.2 1.6c.5.4 1.2.6 1.9.6.5 0 1 0 1.3-.3.4-.1.7-.4 1-.7l.6-1.2h2.4a4.8 4.8 0 0 1-2.6 3.8 6 6 0 0 1-2.7.6Zm8-.3V69h2.6v13h-2.5Zm1.4-15.1c-.5 0-.9-.2-1.2-.5-.3-.3-.4-.6-.4-1s.1-.8.4-1.1c.3-.3.7-.5 1.2-.5.4 0 .8.2 1.1.5.3.3.5.7.5 1 0 .5-.2.8-.5 1.1-.3.3-.7.5-1.1.5Zm10.3 15.4c-1.3 0-2.4-.3-3.3-.9-1-.5-1.7-1.3-2.2-2.3a8 8 0 0 1-.7-3.6 8 8 0 0 1 .7-3.5c.5-1 1.2-1.8 2.1-2.4 1-.6 2-.9 3.2-.9.8 0 1.5.2 2.2.4a5.2 5.2 0 0 1 3.1 3.2c.4.8.5 1.8.5 3v1h-10.4v-2h8c0-.7-.2-1.3-.5-1.8a3 3 0 0 0-2.9-1.7c-.7 0-1.3.2-1.8.6-.6.3-1 .8-1.3 1.3a4 4 0 0 0-.4 1.9V76c0 1 .2 1.7.5 2.3.3.6.7 1 1.3 1.4.5.3 1.2.5 2 .5l1.2-.2c.4-.2.8-.4 1-.7.4-.3.6-.6.7-1l2.4.4c-.1.7-.5 1.4-1 1.9a5 5 0 0 1-1.9 1.2 7 7 0 0 1-2.5.5Zm11-8V82h-2.6V69h2.5v2h.1c.3-.7.8-1.2 1.5-1.6.6-.5 1.4-.7 2.4-.7.9 0 1.7.2 2.4.6.6.4 1.1 1 1.5 1.7.4.7.6 1.6.6 2.7V82h-2.6v-8c0-1-.2-1.7-.7-2.2-.5-.6-1.2-.9-2-.9-.7 0-1.2.2-1.6.4-.5.3-.9.7-1.1 1.2-.3.4-.4 1-.4 1.7Zm17.3 8a6 6 0 0 1-3.3-.9c-.9-.6-1.6-1.4-2-2.4a8 8 0 0 1-.8-3.5c0-1.3.2-2.5.7-3.5a5.9 5.9 0 0 1 5.3-3.3c1 0 2 .2 2.7.6.8.4 1.4.9 2 1.5.4.7.7 1.5.8 2.3h-2.5a3 3 0 0 0-1-1.5c-.4-.5-1-.7-1.9-.7-.7 0-1.3.2-1.9.5-.5.4-.9 1-1.2 1.6a6 6 0 0 0-.4 2.5c0 1 .1 1.7.4 2.4a3.2 3.2 0 0 0 3.1 2.2c.5 0 1 0 1.3-.3.4-.1.8-.4 1-.7l.6-1.2h2.5c-.1.8-.4 1.6-.9 2.2-.4.7-1 1.2-1.8 1.6a6 6 0 0 1-2.7.6Zm13.7 0c-1.2 0-2.4-.3-3.3-.9-1-.5-1.6-1.3-2.1-2.3a8 8 0 0 1-.8-3.6 8 8 0 0 1 .8-3.5c.5-1 1.2-1.8 2-2.4a6.4 6.4 0 0 1 5.3-.5 5.2 5.2 0 0 1 3.3 3.2c.3.8.5 1.8.5 3v1h-10.4v-2h7.9c0-.7-.2-1.3-.4-1.8a3 3 0 0 0-3-1.7c-.6 0-1.3.2-1.8.6-.5.3-1 .8-1.2 1.3a4 4 0 0 0-.4 1.9V76c0 1 .1 1.7.4 2.3.3.6.8 1 1.3 1.4.6.3 1.2.5 2 .5l1.3-.2 1-.7.7-1 2.4.4c-.2.7-.5 1.4-1 1.9a5 5 0 0 1-2 1.2 7 7 0 0 1-2.5.5Zm10.2-.1c-.5 0-.9-.2-1.2-.5-.4-.4-.5-.8-.5-1.2 0-.5.1-1 .5-1.2.3-.4.7-.5 1.2-.5.4 0 .8.1 1.2.5.3.3.5.7.5 1.2 0 .3-.1.6-.3.8-.1.3-.3.5-.6.6-.2.2-.5.3-.8.3Zm0-9.6c-.5 0-.9-.1-1.2-.5-.4-.3-.5-.7-.5-1.2 0-.4.1-.8.5-1.2.3-.3.7-.5 1.2-.5.4 0 .8.2 1.2.5.3.4.5.8.5 1.2l-.3.9c-.1.2-.3.5-.6.6-.2.2-.5.2-.8.2ZM530.4 82h-2.8l6.3-17.5h3l6.3 17.5h-2.8l-5-14.3-5 14.3Zm.5-6.8h9v2.2h-9v-2.2Zm14.6 11.7V69h2.5V71h.2l.7-1c.2-.3.6-.6 1.1-.9a4 4 0 0 1 2-.4 5.1 5.1 0 0 1 4.8 3.1c.4 1 .7 2.3.7 3.7 0 1.4-.3 2.6-.7 3.6-.5 1-1.2 1.8-2 2.3a5 5 0 0 1-2.8.9c-.8 0-1.4-.2-2-.4l-1.1-1-.7-1h-.1v7h-2.6Zm2.5-11.4c0 .9.1 1.7.4 2.4.3.7.7 1.2 1.2 1.6a3 3 0 0 0 1.8.6 3 3 0 0 0 2-.6c.5-.4.8-1 1.1-1.7.3-.7.4-1.5.4-2.3 0-1-.1-1.7-.4-2.4a3 3 0 0 0-3-2.2 3 3 0 0 0-2 .6c-.4.4-.8.9-1 1.6-.4.7-.5 1.4-.5 2.4Zm12.3 11.4V69h2.5V71h.2l.7-1 1.1-.9a4 4 0 0 1 2-.4 5.1 5.1 0 0 1 4.8 3.1c.4 1 .7 2.3.7 3.7 0 1.4-.2 2.6-.7 3.6-.5 1-1.1 1.8-2 2.3a5 5 0 0 1-2.8.9c-.8 0-1.4-.2-2-.4l-1.1-1a7 7 0 0 1-.7-1h-.1v7h-2.6Zm2.5-11.4c0 .9.2 1.7.4 2.4.3.7.7 1.2 1.2 1.6a3 3 0 0 0 1.8.6 3 3 0 0 0 2-.6c.5-.4.9-1 1.1-1.7.3-.7.4-1.5.4-2.3 0-1-.1-1.7-.4-2.4a3 3 0 0 0-3-2.2 3 3 0 0 0-2 .6c-.4.4-.8.9-1 1.6-.3.7-.5 1.4-.5 2.4ZM585 72l-2.4.4c0-.3-.2-.6-.4-.8-.2-.3-.5-.5-.9-.7a3 3 0 0 0-1.3-.2c-.7 0-1.3.1-1.8.4-.5.4-.7.8-.7 1.3 0 .4.2.8.5 1 .3.3.8.5 1.5.7l2.1.5c1.2.2 2.1.7 2.7 1.3.6.5 1 1.3 1 2.2 0 .8-.3 1.5-.8 2.1-.4.6-1 1.1-1.9 1.4a7 7 0 0 1-2.7.6c-1.5 0-2.7-.3-3.6-1a4 4 0 0 1-1.7-2.7l2.4-.3c.2.6.5 1 1 1.4.5.3 1 .5 1.8.5.9 0 1.5-.2 2-.5.5-.4.8-.8.8-1.3 0-.4-.2-.7-.5-1a3 3 0 0 0-1.4-.7l-2.2-.4a5.3 5.3 0 0 1-2.7-1.4c-.6-.6-.9-1.4-.9-2.3 0-.8.3-1.4.7-2 .4-.6 1-1 1.8-1.4.7-.3 1.6-.5 2.6-.5 1.4 0 2.5.3 3.3 1 .9.6 1.4 1.4 1.7 2.4Zm4.7 10c-.5 0-.9-.1-1.2-.4-.3-.4-.5-.8-.5-1.2 0-.5.2-1 .5-1.2.3-.4.7-.5 1.2-.5s.9.1 1.2.5c.3.3.5.7.5 1.2 0 .3 0 .6-.2.8-.2.3-.4.5-.7.6-.2.2-.5.3-.8.3Zm0-9.5c-.5 0-.9-.1-1.2-.5-.3-.3-.5-.7-.5-1.2 0-.4.2-.8.5-1.2.3-.3.7-.5 1.2-.5s.9.2 1.2.5c.3.4.5.8.5 1.2 0 .3 0 .6-.2.9-.2.2-.4.5-.7.6-.2.2-.5.2-.8.2ZM52.3 82l-4.8-17.5h2.8l3.4 13.6h.1l3.6-13.6H60l3.5 13.6h.2l3.4-13.6H70L65 82h-2.6l-3.7-13h-.1L55 82h-2.7Zm24.2.3c-1.3 0-2.4-.3-3.3-.9-1-.5-1.6-1.3-2.2-2.3a8 8 0 0 1-.7-3.6A8 8 0 0 1 71 72c.6-1 1.3-1.8 2.2-2.4.9-.6 2-.9 3.1-.9.8 0 1.5.2 2.2.4a5.2 5.2 0 0 1 3.2 3.2c.3.8.4 1.8.4 3v1H71.7v-2h8c0-.7-.2-1.3-.5-1.8a3 3 0 0 0-2.8-1.7c-.8 0-1.4.2-2 .6-.4.3-.8.8-1.1 1.3a4 4 0 0 0-.5 1.9V76c0 1 .2 1.7.5 2.3.3.6.7 1 1.3 1.4.6.3 1.2.5 2 .5l1.3-.2 1-.7.7-1 2.4.4c-.2.7-.6 1.4-1 1.9a5 5 0 0 1-2 1.2 7 7 0 0 1-2.5.5Zm8.7-.3V64.5h2.5V71h.2l.6-1 1.2-.9a4 4 0 0 1 2-.4 5.1 5.1 0 0 1 4.7 3.1c.5 1 .7 2.3.7 3.7 0 1.4-.2 2.6-.7 3.6-.4 1-1 1.8-2 2.3a5 5 0 0 1-2.7.9c-.8 0-1.5-.2-2-.4-.5-.3-.9-.6-1.2-1a7 7 0 0 1-.6-1h-.2V82h-2.5Zm2.5-6.5c0 .9.1 1.7.4 2.4a3 3 0 0 0 3 2.2 3 3 0 0 0 1.9-.6c.5-.4.9-1 1.2-1.7.2-.7.4-1.5.4-2.3 0-1-.2-1.7-.4-2.4-.3-.7-.7-1.2-1.2-1.6a3 3 0 0 0-2-.6 3 3 0 0 0-1.8.6c-.5.4-.9.9-1.1 1.6-.3.7-.4 1.4-.4 2.4Zm14 6.7c-.5 0-.9-.2-1.2-.5-.4-.4-.5-.8-.5-1.2 0-.5.1-1 .5-1.2.3-.4.7-.5 1.2-.5.4 0 .8.1 1.2.5.3.3.5.7.5 1.2 0 .3-.1.6-.3.8-.1.3-.3.5-.6.6-.2.2-.5.3-.8.3Zm0-9.6c-.5 0-.9-.1-1.2-.5-.4-.3-.5-.7-.5-1.2 0-.4.1-.8.5-1.2.3-.3.7-.5 1.2-.5.4 0 .8.2 1.2.5.3.4.5.8.5 1.2l-.3.9c-.1.2-.3.5-.6.6-.2.2-.5.2-.8.2ZM184 82V64.5h10.7v2.3h-8.1v5.3h7.4v2.3h-7.4V82h-2.7Zm13.8 0V69h2.5v13h-2.5Zm1.3-15.1c-.5 0-.9-.2-1.2-.5-.3-.3-.4-.6-.4-1s.1-.8.4-1.1c.3-.3.7-.5 1.2-.5.4 0 .8.2 1.1.5.3.3.5.7.5 1 0 .5-.2.8-.5 1.1-.3.3-.7.5-1.1.5Zm7.2-2.4V82h-2.5V64.5h2.5Zm3.4 17.5V69h2.5v2h.1c.3-.7.8-1.2 1.4-1.6a4 4 0 0 1 2.2-.7c.9 0 1.6.2 2.2.7.6.4 1 1 1.3 1.6h.2c.3-.7.8-1.2 1.4-1.6.7-.5 1.5-.7 2.5-.7a4 4 0 0 1 2.9 1.2c.7.7 1.1 1.8 1.1 3.3V82H225v-8.5c0-1-.3-1.6-.7-2-.5-.4-1.1-.6-1.8-.6-.8 0-1.5.3-2 .8-.4.5-.6 1.2-.6 2V82h-2.5v-8.7c0-.7-.3-1.3-.7-1.7-.5-.4-1-.7-1.7-.7-.5 0-1 .2-1.4.4l-1 1c-.2.5-.3 1-.3 1.6V82h-2.6Zm23 .2c-.5 0-1-.2-1.3-.5-.3-.4-.5-.8-.5-1.2 0-.5.2-1 .5-1.2.4-.4.8-.5 1.2-.5.5 0 .9.1 1.2.5.4.3.5.7.5 1.2 0 .3 0 .6-.2.8l-.6.6-.9.3Zm0-9.6c-.5 0-1-.1-1.3-.5-.3-.3-.5-.7-.5-1.2 0-.4.2-.8.5-1.2.4-.3.8-.5 1.2-.5.5 0 .9.2 1.2.5.4.4.5.8.5 1.2 0 .3 0 .6-.2.9l-.6.6c-.3.2-.6.2-.9.2ZM299.8 131h-2.2l6.4-17.5h2.2l6.4 17.5h-2.2l-5.2-14.7h-.2l-5.2 14.7Zm.8-6.8h9v1.9h-9v-2Zm14.5 6.8v-13h1.9v1.9h.1c.3-.7.7-1.2 1.3-1.6.7-.4 1.4-.6 2.1-.6a20.5 20.5 0 0 1 1.1 0v2a5.8 5.8 0 0 0-1.2 0c-.7 0-1.2 0-1.7.3a3 3 0 0 0-1.6 2.7v8.3h-2Zm8.9 0v-13h2v2h.1c.3-.7.7-1.3 1.3-1.7a4 4 0 0 1 2.2-.6c.9 0 1.6.2 2.2.6.6.4 1 1 1.3 1.7h.2c.3-.7.8-1.3 1.5-1.7.6-.4 1.4-.6 2.4-.6a4 4 0 0 1 2.9 1.1c.7.8 1 1.9 1 3.4v8.8h-2v-8.8c0-1-.2-1.6-.7-2a3 3 0 0 0-1.9-.7c-1 0-1.6.3-2.1.9a3 3 0 0 0-.8 2v8.6h-2v-9c0-.7-.3-1.3-.8-1.8-.4-.4-1-.7-1.8-.7-.6 0-1 .2-1.5.5-.4.2-.8.6-1 1.1-.4.5-.5 1-.5 1.7v8.2h-2Zm30.6 0-4-13h2l3 10 2.9-10h2.1l2.8 9.9h.1l2.8-10h2.1l-4 13.1h-2l-2.8-10h-.2l-2.9 10h-2Zm16.5 0v-13h2v1.9c.3-.7.7-1.2 1.4-1.6.6-.4 1.3-.6 2-.6a20.5 20.5 0 0 1 1.1 0v2a5.8 5.8 0 0 0-1.2 0c-.6 0-1.2 0-1.7.3a3 3 0 0 0-1.6 2.7v8.3h-2Zm14 .3c-1.2 0-2.3-.3-3.2-.9-1-.5-1.7-1.3-2.2-2.3a8 8 0 0 1-.7-3.5c0-1.4.3-2.6.7-3.6a5.5 5.5 0 0 1 5.2-3.3c.7 0 1.4.2 2 .4a5 5 0 0 1 3.2 3.1c.3.8.4 1.9.4 3v1h-10v-1.8h8c0-.7-.2-1.4-.4-2a3.3 3.3 0 0 0-3.2-1.9c-.8 0-1.5.2-2 .6a4 4 0 0 0-1.4 1.6c-.3.6-.5 1.3-.5 2v1.2c0 1 .2 1.8.5 2.5.4.7.9 1.2 1.5 1.5.6.4 1.3.6 2.1.6.5 0 1-.1 1.4-.3a3 3 0 0 0 1.2-.6c.3-.3.5-.7.7-1.2l2 .6c-.3.6-.6 1.2-1.1 1.7a5 5 0 0 1-1.8 1.2c-.7.2-1.5.4-2.4.4Zm17.8-10.5-1.8.6-.5-1c-.3-.2-.6-.5-1-.6-.3-.2-.8-.3-1.4-.3-.8 0-1.4.2-2 .5-.5.4-.8.9-.8 1.4 0 .5.2 1 .6 1.2.3.3 1 .5 1.7.7l2 .5c1.1.3 2 .7 2.5 1.3.6.6 1 1.3 1 2.3 0 .7-.3 1.4-.7 2-.5.6-1 1-1.8 1.4-.8.3-1.7.5-2.7.5-1.3 0-2.4-.3-3.3-.9a3.9 3.9 0 0 1-1.7-2.5l2-.5c.1.7.5 1.2 1 1.6.5.3 1.1.5 2 .5.9 0 1.6-.2 2.2-.6.6-.4.8-.9.8-1.4 0-.5-.1-.9-.4-1.2a3 3 0 0 0-1.5-.7l-2.2-.5c-1.2-.3-2-.7-2.6-1.3-.6-.6-.9-1.4-.9-2.3 0-.7.2-1.4.7-2 .4-.5 1-1 1.7-1.3a6 6 0 0 1 2.4-.5c1.3 0 2.3.3 3 .9.8.6 1.4 1.3 1.7 2.2Zm9-2.9v1.7H405V118h6.8Zm-4.9-3.1h2v12.5c0 .5.1 1 .3 1.2l.6.6.9.1h.9l.4 1.7a4.1 4.1 0 0 1-1.5.3 4 4 0 0 1-1.7-.4c-.5-.2-1-.6-1.3-1.1-.4-.5-.6-1.1-.6-1.9v-13Zm10.1-1.3V131h-2v-17.5h2Zm3.7 17.5v-13h2v13h-2Zm1-15.3c-.3 0-.7-.1-1-.4-.2-.2-.4-.6-.4-1 0-.3.2-.6.4-.9.3-.3.7-.4 1-.4.4 0 .8.1 1 .4.3.3.5.6.5 1 0 .3-.2.7-.4 1-.3.2-.7.3-1 .3Zm6.7 7.4v7.9h-2v-13h2v2h.1c.3-.7.8-1.2 1.4-1.6.7-.5 1.5-.7 2.5-.7.8 0 1.6.2 2.3.6.7.3 1.2.9 1.5 1.6.4.7.6 1.7.6 2.8v8.3h-2v-8.2c0-1-.3-1.8-.8-2.4-.6-.6-1.3-.9-2.2-.9-.7 0-1.2.2-1.7.5a3 3 0 0 0-1.2 1.2 4 4 0 0 0-.5 2Zm17.4 13c-1 0-1.9 0-2.6-.3a5.3 5.3 0 0 1-2.8-2.2l1.6-1.2.7.8c.3.4.7.6 1.1.9.5.2 1.2.3 2 .3 1 0 1.9-.2 2.6-.8.7-.5 1-1.3 1-2.4v-2.6h-.2l-.6.9-1.2.9c-.5.3-1.1.4-2 .4-1 0-2-.3-2.8-.8a5.3 5.3 0 0 1-2-2.1c-.5-1-.7-2.2-.7-3.5 0-1.4.2-2.5.7-3.5.4-1 1-1.8 2-2.3.8-.6 1.7-.9 2.8-.9.9 0 1.6.2 2 .5.6.2 1 .6 1.2 1l.7.8h.2v-2h2v13.4c0 1.1-.3 2-.9 2.7-.5.7-1.1 1.2-2 1.6-.9.3-1.8.5-2.8.5Zm-.1-7.1c.8 0 1.5-.2 2-.6.6-.3 1-.9 1.3-1.6.3-.7.4-1.5.4-2.4 0-1-.1-1.8-.4-2.5-.3-.8-.7-1.3-1.3-1.7-.5-.5-1.2-.7-2-.7a3.4 3.4 0 0 0-3.4 2.4c-.3.8-.4 1.6-.4 2.5 0 .9.1 1.7.4 2.4.3.7.7 1.2 1.3 1.6.5.4 1.2.6 2 .6ZM354.1 181v-17.5h10.5v2h-8.4v5.8h7.9v1.9h-7.9v6h8.6v1.8H354Zm26.3-12c-.2-.6-.4-1-.8-1.5a4.8 4.8 0 0 0-4.2-2.2 5.2 5.2 0 0 0-4.8 3.1c-.5 1-.8 2.4-.8 3.9s.3 2.8.8 3.8 1.2 1.8 2 2.4c.9.5 1.9.8 3 .8 1 0 1.8-.3 2.6-.7.8-.4 1.4-1 1.8-1.8.4-.8.6-1.7.6-2.8l.7.1H376v-1.8h6.7v1.8c0 1.5-.3 2.7-1 3.8-.6 1-1.4 1.9-2.5 2.5-1 .5-2.3.8-3.7.8-1.5 0-2.9-.3-4-1-1.2-.8-2.1-1.8-2.8-3.2a11.7 11.7 0 0 1-.4-8.5c.4-1 1-2 1.6-2.8a7 7 0 0 1 5.5-2.4 7.8 7.8 0 0 1 4.7 1.6 6.6 6.6 0 0 1 2.5 4.1h-2.2Zm5.9 12v-17.5h10.5v2h-8.4v5.8h7.9v1.9h-7.9v6h8.6v1.8h-10.7ZM337.1 228v-17.5h2.1v7.8h9.3v-7.8h2.1V228h-2v-7.8h-9.4v7.8h-2Zm17.5 0v-13h2v13h-2Zm1-15.3c-.4 0-.7-.1-1-.4-.3-.2-.4-.6-.4-1 0-.3.1-.6.4-.9.3-.3.6-.4 1-.4s.8.1 1 .4c.3.3.5.6.5 1 0 .3-.2.7-.5 1-.2.2-.6.3-1 .3Zm14 5.1-1.8.6-.5-1c-.3-.2-.5-.5-1-.6-.3-.2-.8-.3-1.4-.3-.8 0-1.4.2-2 .5-.5.4-.8.9-.8 1.4 0 .5.2 1 .6 1.2.4.3 1 .5 1.7.7l2 .5c1.1.3 2 .7 2.6 1.3.5.6.8 1.3.8 2.3 0 .7-.2 1.4-.6 2-.5.6-1 1-1.8 1.4-.8.3-1.7.5-2.7.5-1.3 0-2.4-.3-3.3-.9a3.9 3.9 0 0 1-1.7-2.5l2-.5c.1.7.5 1.2 1 1.6.5.3 1.1.5 2 .5.9 0 1.6-.2 2.2-.6.6-.4.8-.9.8-1.4 0-.5-.1-.9-.4-1.2a3 3 0 0 0-1.5-.7l-2.2-.5c-1.2-.3-2-.7-2.6-1.3-.6-.6-.9-1.4-.9-2.3 0-.7.2-1.4.7-2 .4-.5 1-1 1.7-1.3a6 6 0 0 1 2.4-.5c1.3 0 2.4.3 3 .9.8.6 1.4 1.3 1.7 2.2Zm9-2.9v1.7h-6.9V215h6.8Zm-4.9-3.1h2v12.4c0 .6.1 1 .3 1.3l.6.6.9.1h.9l.4 1.7a4.1 4.1 0 0 1-1.5.3 4 4 0 0 1-1.7-.4c-.5-.2-1-.6-1.3-1.1-.4-.5-.6-1.1-.6-2v-13Zm13 16.5c-1.1 0-2.2-.3-3-.9a5.7 5.7 0 0 1-2.2-2.3 8 8 0 0 1-.7-3.6 8 8 0 0 1 .7-3.5c.5-1 1.2-1.9 2.1-2.4 1-.6 2-.9 3.1-.9 1.2 0 2.3.3 3.1.9 1 .5 1.6 1.3 2.1 2.4a8 8 0 0 1 .8 3.5 8 8 0 0 1-.8 3.6c-.5 1-1.2 1.8-2 2.3-1 .6-2 .9-3.2.9Zm0-1.8c1 0 1.7-.3 2.3-.7.5-.5 1-1 1.2-1.8a7 7 0 0 0 .5-2.5 7 7 0 0 0-.5-2.4c-.2-.8-.7-1.4-1.2-1.9-.6-.4-1.4-.7-2.3-.7-.9 0-1.6.3-2.2.7-.6.5-1 1.1-1.3 1.9a7 7 0 0 0-.4 2.4c0 .9.2 1.7.4 2.5a4 4 0 0 0 1.3 1.8c.6.4 1.3.7 2.2.7Zm9 1.5v-13h2v1.9h.1c.3-.7.7-1.2 1.3-1.6.6-.4 1.3-.6 2.1-.6a20.5 20.5 0 0 1 1 0v2a6 6 0 0 0-1.1 0c-.7 0-1.2 0-1.7.3a3 3 0 0 0-1.6 2.7v8.3h-2Zm10.7 5a4.4 4.4 0 0 1-1.5-.3l.5-1.8c.5.1 1 .2 1.3.1.4 0 .7-.2 1-.5.3-.3.6-.7.8-1.4l.4-1-4.9-13.2h2.2l3.6 10.4h.2l3.6-10.4h2.2l-5.6 15c-.2.7-.5 1.2-1 1.7-.3.4-.7.8-1.2 1a4 4 0 0 1-1.6.3ZM340.2 265H338a4.4 4.4 0 0 0-1.7-2.8l-1.5-.7a5.8 5.8 0 0 0-4.5.6c-.9.5-1.6 1.3-2 2.3-.6 1-.8 2.4-.8 3.9s.2 2.8.7 3.8c.5 1 1.2 1.8 2 2.4 1 .5 1.9.8 3 .8l1.6-.3c.5-.1 1-.4 1.5-.7a4.5 4.5 0 0 0 1.7-2.8h2.2a6.6 6.6 0 0 1-4.5 5.3 7.8 7.8 0 0 1-6.5-.7c-1.2-.7-2.1-1.7-2.8-3-.6-1.4-1-3-1-4.8 0-1.9.4-3.5 1-4.8a7.3 7.3 0 0 1 6.7-4.2c1 0 1.7.1 2.5.4a6.8 6.8 0 0 1 3.7 3c.4.6.7 1.4.9 2.3Zm8.4 12.3c-1.2 0-2.2-.3-3-.9a5.7 5.7 0 0 1-2.2-2.3 8 8 0 0 1-.7-3.6 8 8 0 0 1 .7-3.5c.5-1 1.2-1.9 2.1-2.4.9-.6 2-.9 3.1-.9a5.6 5.6 0 0 1 5.2 3.2 8 8 0 0 1 .8 3.6 8 8 0 0 1-.8 3.6c-.5 1-1.2 1.8-2 2.3-1 .6-2 .9-3.2.9Zm0-1.8c1 0 1.7-.3 2.2-.7.6-.5 1-1 1.3-1.8a7 7 0 0 0 .4-2.5 7 7 0 0 0-.4-2.4c-.3-.8-.7-1.4-1.3-1.9-.5-.4-1.3-.7-2.2-.7-.9 0-1.6.3-2.2.7-.6.5-1 1.1-1.3 1.9a7 7 0 0 0-.4 2.4c0 .9.1 1.7.4 2.5a4 4 0 0 0 1.3 1.8c.6.4 1.3.7 2.2.7Zm11-16V277h-2v-17.5h2Zm8.7 17.8a5.1 5.1 0 0 1-4.9-3.2c-.5-1-.7-2.2-.7-3.6s.2-2.6.7-3.6c.5-1 1.1-1.8 2-2.3.8-.6 1.8-.9 2.9-.9a4 4 0 0 1 2 .5c.5.2.9.6 1.2 1l.6.8h.1v-6.5h2V277h-1.9v-2h-.2l-.7.9c-.2.4-.6.7-1.1 1-.5.2-1.2.4-2 .4Zm.2-1.8c.8 0 1.5-.2 2-.7.6-.4 1-1 1.3-1.7.3-.8.5-1.7.5-2.6a7 7 0 0 0-.4-2.6c-.3-.7-.7-1.3-1.3-1.7-.6-.4-1.2-.7-2-.7-1 0-1.6.3-2.2.7-.6.4-1 1-1.3 1.8a7 7 0 0 0-.4 2.5c0 .9.2 1.7.4 2.5.3.8.8 1.4 1.3 1.8.6.4 1.3.7 2.1.7Zm20 1.5-4.9-17.5h2.2l3.6 14.3h.2l3.7-14.3h2.4l3.7 14.3h.2l3.6-14.3h2.2l-4.8 17.5h-2.2l-3.8-14h-.1l-3.9 14h-2.2Zm21.9.3c-.8 0-1.6-.1-2.3-.5-.6-.3-1.2-.7-1.6-1.3-.4-.6-.6-1.4-.6-2.2 0-.8.2-1.4.5-1.8.3-.5.7-.9 1.2-1.1.4-.3 1-.5 1.6-.6a19.5 19.5 0 0 1 3.7-.6 3 3 0 0 0 1.1-.3c.3-.1.4-.3.4-.7 0-.9-.3-1.5-.7-2-.5-.5-1.2-.7-2-.7-1 0-1.8.2-2.3.6-.6.5-1 1-1.2 1.4l-1.9-.7c.3-.8.8-1.4 1.4-1.9.5-.4 1.2-.7 1.8-.9a7.8 7.8 0 0 1 3.5-.1c.5 0 1 .3 1.6.6.5.3 1 .8 1.3 1.4.3.6.5 1.4.5 2.5v8.6h-2v-1.8h-.1l-.7 1a4 4 0 0 1-1.3.8c-.5.2-1.2.3-2 .3Zm.3-1.8a4 4 0 0 0 2-.5 3.2 3.2 0 0 0 1.7-2.7v-1.9l-.6.3a9.8 9.8 0 0 1-2 .4 62.5 62.5 0 0 0-2.4.4c-.4.2-.8.4-1 .7-.3.3-.5.7-.5 1.2 0 .7.3 1.2.8 1.6.5.3 1.2.5 2 .5Zm9.4 1.5v-13h1.9v1.9h.1c.3-.7.7-1.2 1.3-1.6.7-.4 1.4-.6 2.1-.6a20.5 20.5 0 0 1 1.1 0v2a5.8 5.8 0 0 0-1.2 0c-.7 0-1.2 0-1.7.3a3 3 0 0 0-1.6 2.7v8.3h-2ZM484.5 181h-5.4v-17.5h5.6c1.7 0 3.2.4 4.4 1 1.2.8 2.1 1.8 2.8 3 .6 1.4 1 3 1 4.7 0 1.9-.4 3.4-1 4.7a7 7 0 0 1-2.9 3 9 9 0 0 1-4.5 1.1Zm-3.3-1.9h3.2a7 7 0 0 0 3.6-.8c.9-.6 1.6-1.4 2-2.4.5-1 .8-2.2.8-3.7 0-1.4-.3-2.6-.7-3.6a5 5 0 0 0-2-2.4c-1-.5-2.1-.8-3.5-.8h-3.4v13.7Zm14.9-11.2h2v14c0 .9-.1 1.6-.4 2.2a3 3 0 0 1-1.3 1.3 4 4 0 0 1-2 .5h-.5V184h.4c.6 0 1-.1 1.4-.5.2-.4.4-.9.4-1.5v-14Zm1-2.2c-.4 0-.8-.1-1-.4a1.3 1.3 0 0 1 0-2c.2-.2.6-.3 1-.3s.7.1 1 .4c.3.3.4.6.4 1 0 .3-.1.7-.4 1-.3.2-.6.3-1 .3Zm8.5 15.6c-.8 0-1.5-.1-2.2-.5-.7-.3-1.2-.7-1.6-1.3-.4-.6-.6-1.4-.6-2.2 0-.8.1-1.4.4-1.8.3-.5.7-.9 1.2-1.1.5-.3 1-.5 1.6-.6a19.5 19.5 0 0 1 3.8-.6 3 3 0 0 0 1-.3c.3-.1.4-.3.4-.7 0-.9-.2-1.5-.7-2-.4-.5-1.1-.7-2-.7-1 0-1.7.2-2.3.6-.5.5-1 1-1.1 1.4l-2-.7c.4-.8.8-1.4 1.4-1.9.6-.4 1.2-.7 1.9-.9a7.8 7.8 0 0 1 3.4-.1c.6 0 1.1.3 1.6.6.6.3 1 .8 1.3 1.4.4.6.5 1.4.5 2.5v8.6h-2v-1.8l-.8 1a4 4 0 0 1-1.2.8c-.6.2-1.2.3-2 .3Zm.3-1.8a4 4 0 0 0 2-.5 3.2 3.2 0 0 0 1.7-2.7v-1.9l-.5.3a9.8 9.8 0 0 1-2.1.4 62.5 62.5 0 0 0-2.3.4l-1.1.7c-.3.3-.4.7-.4 1.2 0 .7.2 1.2.8 1.6.5.3 1.1.5 2 .5Zm9.4 1.5v-13h2v1.9a3.8 3.8 0 0 1 3.4-2.2 20.5 20.5 0 0 1 1.2 0v2a5.8 5.8 0 0 0-1.3 0c-.6 0-1.2 0-1.7.3a3 3 0 0 0-1.6 2.7v8.3h-2Zm20-13-4.8 13h-2l-4.9-13h2.2l3.6 10.3h.1l3.7-10.4h2.1Zm2.7 13v-13h2v13h-2Zm1-15.3c-.4 0-.7-.1-1-.4-.3-.2-.4-.6-.4-1 0-.3.1-.6.4-.9.3-.3.6-.4 1-.4s.7.1 1 .4c.3.3.5.6.5 1 0 .3-.2.7-.5 1-.3.2-.6.3-1 .3Zm14 5.1-1.8.6-.5-1c-.3-.2-.6-.5-1-.6-.3-.2-.8-.3-1.4-.3-.8 0-1.4.2-2 .5-.5.4-.8.9-.8 1.4 0 .5.2 1 .6 1.2.3.3 1 .5 1.7.7l2 .5c1.1.3 2 .7 2.5 1.3.6.6.9 1.3.9 2.3 0 .7-.2 1.4-.6 2-.5.6-1 1-1.8 1.4-.8.3-1.7.5-2.7.5-1.3 0-2.5-.3-3.3-.9a3.9 3.9 0 0 1-1.7-2.5l2-.5c.1.7.4 1.2 1 1.6.5.3 1.1.5 2 .5.9 0 1.6-.2 2.2-.6.5-.4.8-.9.8-1.4 0-.5-.1-.9-.5-1.2a3 3 0 0 0-1.4-.7l-2.2-.5c-1.2-.3-2-.7-2.6-1.3-.6-.6-.9-1.4-.9-2.3 0-.7.2-1.4.6-2 .5-.5 1-1 1.8-1.3a6 6 0 0 1 2.4-.5c1.3 0 2.3.3 3 .9.8.6 1.4 1.3 1.7 2.2Zm19.8-2.9c-.1-.9-.5-1.5-1.2-2-.8-.5-1.7-.7-2.7-.7a5 5 0 0 0-2 .4c-.6.2-1 .6-1.4 1a2.5 2.5 0 0 0-.1 2.7l.8.8 1.1.5 1.1.4 1.8.5c.4 0 1 .2 1.5.4a7 7 0 0 1 1.6 1c.5.3 1 .7 1.3 1.3a4.6 4.6 0 0 1-.2 4.6 5 5 0 0 1-2.2 1.8c-1 .5-2 .7-3.4.7a8 8 0 0 1-3.3-.6c-.9-.4-1.6-1-2.1-1.7s-.8-1.5-.9-2.5h2.2c0 .7.3 1.2.7 1.6.3.5.8.8 1.4 1a6 6 0 0 0 4.2 0c.6-.4 1.1-.7 1.5-1.2.4-.5.5-1 .5-1.7 0-.6-.1-1-.4-1.4-.4-.4-.8-.6-1.3-.9l-1.7-.6-2.2-.6a8 8 0 0 1-3.2-1.7 3.7 3.7 0 0 1-1.2-2.8c0-1 .2-1.8.8-2.6.5-.7 1.2-1.3 2.1-1.7 1-.4 2-.6 3-.6 1.2 0 2.2.2 3 .6 1 .4 1.6 1 2.1 1.6.5.7.8 1.5.8 2.4h-2Zm6.8 18a4.4 4.4 0 0 1-1.5-.2l.5-1.8c.5.1 1 .2 1.3.1.4 0 .7-.2 1-.5.3-.3.6-.7.8-1.4l.4-1-4.8-13.2h2.1l3.7 10.4h.1l3.6-10.4h2.2l-5.6 15c-.2.7-.5 1.2-.9 1.7-.4.4-.8.8-1.3 1a4 4 0 0 1-1.6.3Zm21.3-15-1.8.5-.5-1c-.2-.2-.5-.5-.9-.6-.4-.2-.8-.3-1.4-.3-.8 0-1.5.2-2 .5-.5.4-.8.9-.8 1.4 0 .5.2 1 .5 1.2.4.3 1 .5 1.7.7l2 .5c1.1.3 2 .7 2.6 1.3.6.6.9 1.3.9 2.3 0 .7-.3 1.4-.7 2-.4.6-1 1-1.8 1.4-.7.3-1.6.5-2.7.5-1.3 0-2.4-.3-3.3-.9a3.9 3.9 0 0 1-1.6-2.5l1.9-.5c.2.7.5 1.2 1 1.6.5.3 1.2.5 2 .5 1 0 1.7-.2 2.2-.6.6-.4.9-.9.9-1.4 0-.5-.2-.9-.5-1.2a3 3 0 0 0-1.5-.7l-2.1-.5c-1.2-.3-2.1-.7-2.7-1.3-.5-.6-.8-1.4-.8-2.3 0-.7.2-1.4.6-2 .4-.5 1-1 1.7-1.3a6 6 0 0 1 2.5-.5c1.3 0 2.3.3 3 .9.8.6 1.3 1.3 1.6 2.2Zm9-3v1.7H603V168h6.8Zm-4.8-3.1h2v12.4c0 .6 0 1 .2 1.3.2.3.4.5.7.6l.8.1H609.7l.4 1.7a4 4 0 0 1-1.5.3 4 4 0 0 1-1.7-.4c-.5-.2-1-.6-1.3-1.1-.4-.5-.5-1.1-.5-2v-13Zm13.2 16.5c-1.3 0-2.4-.3-3.3-.9-1-.5-1.6-1.3-2.1-2.3a8 8 0 0 1-.8-3.5c0-1.4.3-2.6.8-3.6s1.2-1.8 2-2.4c1-.6 2-.9 3.1-.9.7 0 1.4.2 2 .4a5 5 0 0 1 3.2 3.1c.3.8.5 1.9.5 3v1h-10.1v-1.8h8c0-.7-.1-1.4-.4-2a3.3 3.3 0 0 0-3.2-1.9c-.8 0-1.4.2-2 .6a4 4 0 0 0-1.4 1.6c-.3.6-.4 1.3-.4 2v1.2c0 1 .1 1.8.5 2.5.3.7.8 1.2 1.4 1.5.6.4 1.3.6 2.2.6.5 0 1-.1 1.4-.3a3 3 0 0 0 1.1-.6c.3-.3.6-.7.7-1.2l2 .6c-.2.6-.6 1.2-1 1.7a5 5 0 0 1-1.9 1.2c-.7.2-1.5.4-2.3.4Zm8.4-.3v-13h2v2h.1c.3-.7.8-1.3 1.4-1.7a4 4 0 0 1 2.2-.6c.8 0 1.5.2 2.1.6.6.4 1 1 1.4 1.7h.1c.3-.7.8-1.3 1.5-1.7.7-.4 1.5-.6 2.4-.6a4 4 0 0 1 2.9 1.1c.7.8 1.1 1.9 1.1 3.4v8.8h-2v-8.8c0-1-.3-1.6-.8-2a3 3 0 0 0-1.9-.7c-.9 0-1.6.3-2.1.9a3 3 0 0 0-.8 2v8.6h-2v-9c0-.7-.2-1.3-.7-1.8-.5-.4-1.1-.7-1.9-.7-.5 0-1 .2-1.5.5-.4.2-.8.6-1 1.1-.3.5-.5 1-.5 1.7v8.2h-2ZM684.8 163.5l5.2 14.7h.2l5.2-14.7h2.2l-6.4 17.5H689l-6.4-17.5h2.2Zm15.3 17.5v-13h2v13h-2Zm1-15.3c-.4 0-.7-.1-1-.4-.3-.2-.4-.6-.4-1 0-.3 0-.6.4-.9.3-.3.6-.4 1-.4s.7.1 1 .4c.3.3.4.6.4 1 0 .3-.1.7-.4 1-.3.2-.6.3-1 .3Zm9.6 15.6a5.1 5.1 0 0 1-4.9-3.2c-.4-1-.7-2.2-.7-3.6s.3-2.6.7-3.6c.5-1 1.2-1.8 2-2.3.9-.6 1.8-.9 3-.9a4 4 0 0 1 2 .5c.5.2.8.6 1 1 .4.3.6.6.7.8h.2v-6.5h2V181h-2v-2h-.2l-.6.9-1.2 1c-.5.2-1.2.4-2 .4Zm.3-1.8c.8 0 1.5-.2 2-.7.6-.4 1-1 1.3-1.7.3-.8.4-1.7.4-2.6a7 7 0 0 0-.4-2.6c-.3-.7-.7-1.3-1.3-1.7-.5-.4-1.2-.7-2-.7-.9 0-1.6.3-2.2.7-.5.4-1 1-1.2 1.8a7 7 0 0 0-.4 2.5c0 .9 0 1.7.4 2.5.3.8.7 1.4 1.3 1.8.5.4 1.2.7 2 .7Zm15.1 1.8c-1.2 0-2.3-.3-3.2-.9-1-.5-1.6-1.3-2.1-2.3a8 8 0 0 1-.8-3.5c0-1.4.3-2.6.8-3.6s1.2-1.8 2-2.4c1-.6 2-.9 3.1-.9.7 0 1.4.2 2 .4a5 5 0 0 1 3.2 3.1c.3.8.5 1.9.5 3v1h-10.1v-1.8h8c0-.7-.1-1.4-.4-2a3.3 3.3 0 0 0-3.2-1.9c-.8 0-1.4.2-2 .6a4 4 0 0 0-1.4 1.6c-.3.6-.4 1.3-.4 2v1.2c0 1 .1 1.8.5 2.5.3.7.8 1.2 1.4 1.5.6.4 1.3.6 2.1.6.6 0 1-.1 1.5-.3a3 3 0 0 0 1.1-.6c.3-.3.6-.7.7-1.2l2 .6c-.2.6-.6 1.2-1 1.7a5 5 0 0 1-1.9 1.2c-.7.2-1.5.4-2.4.4Zm13.8 0c-1.1 0-2.2-.3-3-.9a5.7 5.7 0 0 1-2.1-2.3 8 8 0 0 1-.8-3.6 8 8 0 0 1 .8-3.5c.5-1 1.2-1.9 2-2.4 1-.6 2-.9 3.1-.9 1.2 0 2.3.3 3.1.9 1 .5 1.6 1.3 2.1 2.4a8 8 0 0 1 .8 3.5 8 8 0 0 1-.8 3.6c-.5 1-1.2 1.8-2 2.3-1 .6-2 .9-3.2.9Zm0-1.8c1 0 1.7-.3 2.3-.7.5-.5 1-1 1.3-1.8a7 7 0 0 0 .4-2.5 7 7 0 0 0-.4-2.4c-.3-.8-.8-1.4-1.3-1.9-.6-.4-1.4-.7-2.3-.7-.9 0-1.6.3-2.2.7-.5.5-1 1.1-1.3 1.9a7 7 0 0 0-.4 2.4c0 .9.2 1.7.4 2.5a4 4 0 0 0 1.3 1.8c.6.4 1.3.7 2.2.7Zm16.6-7v2h-7.7v-2h7.7Zm12.8-1.7-1.8.6-.5-1c-.3-.2-.6-.5-1-.6-.3-.2-.8-.3-1.4-.3-.8 0-1.4.2-2 .5-.5.4-.8.9-.8 1.4 0 .5.2 1 .6 1.2.3.3 1 .5 1.7.7l2 .5c1 .3 2 .7 2.5 1.3.6.6.9 1.3.9 2.3 0 .7-.2 1.4-.6 2-.5.6-1 1-1.8 1.4-.8.3-1.7.5-2.7.5-1.3 0-2.5-.3-3.3-.9a3.9 3.9 0 0 1-1.7-2.5l2-.5c.1.7.4 1.2 1 1.6.5.3 1.1.5 2 .5.9 0 1.6-.2 2.2-.6.5-.4.8-.9.8-1.4 0-.5-.1-.9-.5-1.2a3 3 0 0 0-1.4-.7l-2.2-.5c-1.2-.3-2-.7-2.6-1.3-.6-.6-.9-1.4-.9-2.3 0-.7.2-1.4.6-2 .5-.5 1-1 1.8-1.3a6 6 0 0 1 2.4-.5c1.3 0 2.3.3 3 .9.8.6 1.4 1.3 1.7 2.2Zm3.2 10.2v-13h2v13h-2Zm1-15.3c-.3 0-.7-.1-1-.4-.2-.2-.4-.6-.4-1 0-.3.2-.6.4-.9.3-.3.7-.4 1-.4.4 0 .8.1 1 .4.3.3.5.6.5 1 0 .3-.2.7-.4 1-.3.2-.7.3-1 .3ZM784 168v1.7h-6.8V168h6.8Zm-4.8-3.1h2v12.4c0 .6.1 1 .3 1.3.1.3.4.5.6.6l.9.1h.8l.5 1.7a4.1 4.1 0 0 1-1.5.3 4 4 0 0 1-1.7-.4c-.6-.2-1-.6-1.4-1.1-.3-.5-.5-1.1-.5-2v-13Zm13.2 16.5c-1.3 0-2.4-.3-3.3-.9-.9-.5-1.6-1.3-2-2.3a8 8 0 0 1-.8-3.5c0-1.4.2-2.6.7-3.6.5-1 1.2-1.8 2-2.4a6.2 6.2 0 0 1 5.1-.5 5 5 0 0 1 3.2 3.1c.3.8.5 1.9.5 3v1h-10v-1.8h8c0-.7-.2-1.4-.5-2a3.3 3.3 0 0 0-3.1-1.9c-.8 0-1.5.2-2 .6a4 4 0 0 0-1.4 1.6c-.3.6-.5 1.3-.5 2v1.2c0 1 .2 1.8.5 2.5.4.7.8 1.2 1.5 1.5.6.4 1.3.6 2 .6.6 0 1.1-.1 1.5-.3a3 3 0 0 0 1.1-.6c.4-.3.6-.7.8-1.2l2 .6c-.3.6-.6 1.2-1.1 1.7a5 5 0 0 1-1.8 1.2c-.7.2-1.5.4-2.4.4ZM692.2 119H690a4.4 4.4 0 0 0-1.7-2.8l-1.5-.7a5.8 5.8 0 0 0-4.5.6c-.9.5-1.6 1.3-2 2.3-.6 1-.8 2.4-.8 3.9s.2 2.8.7 3.8c.5 1 1.2 1.8 2 2.4 1 .5 1.9.8 3 .8l1.6-.3c.5-.1 1-.4 1.5-.7a4.5 4.5 0 0 0 1.7-2.8h2.2a6.6 6.6 0 0 1-4.5 5.3 7.8 7.8 0 0 1-6.5-.7c-1.2-.7-2.1-1.7-2.8-3-.6-1.4-1-3-1-4.8 0-1.9.4-3.5 1-4.8a7.3 7.3 0 0 1 6.7-4.2c1 0 1.7.1 2.5.4a6.8 6.8 0 0 1 3.7 3c.4.6.7 1.4.9 2.3Zm8.4 12.3c-1.2 0-2.2-.3-3-.9a5.7 5.7 0 0 1-2.2-2.3 8 8 0 0 1-.7-3.6 8 8 0 0 1 .7-3.5c.5-1 1.2-1.9 2.1-2.4.9-.6 2-.9 3.1-.9a5.6 5.6 0 0 1 5.2 3.2 8 8 0 0 1 .8 3.6 8 8 0 0 1-.8 3.6c-.5 1-1.2 1.8-2 2.3-1 .6-2 .9-3.2.9Zm0-1.8c1 0 1.7-.3 2.2-.7.6-.5 1-1 1.3-1.8a7 7 0 0 0 .4-2.5 7 7 0 0 0-.4-2.4c-.3-.8-.7-1.4-1.3-1.9-.5-.4-1.3-.7-2.2-.7-.9 0-1.6.3-2.2.7-.6.5-1 1.1-1.3 1.9a7 7 0 0 0-.4 2.4c0 .9.1 1.7.4 2.5a4 4 0 0 0 1.3 1.8c.6.4 1.3.7 2.2.7Zm11-16V131h-2v-17.5h2Zm8.7 17.8a5.1 5.1 0 0 1-4.9-3.2c-.5-1-.7-2.2-.7-3.6s.2-2.6.7-3.6c.5-1 1.1-1.8 2-2.3.8-.6 1.8-.9 2.9-.9a4 4 0 0 1 2 .5c.5.2.9.6 1.2 1l.6.8h.1v-6.5h2V131h-1.9v-2h-.2l-.7.9c-.2.3-.6.7-1.1 1-.5.2-1.2.4-2 .4Zm.2-1.8c.8 0 1.5-.2 2-.7.6-.4 1-1 1.3-1.7.3-.8.5-1.7.5-2.6a7 7 0 0 0-.4-2.6c-.3-.7-.7-1.3-1.3-1.7-.6-.4-1.2-.7-2-.7-1 0-1.6.3-2.2.7-.6.4-1 1-1.3 1.8a7 7 0 0 0-.4 2.5c0 .9.2 1.7.4 2.5.3.8.8 1.4 1.3 1.8.6.4 1.3.7 2.1.7Zm22.3-11.6v1.7h-7V118h7Zm-5 13.1v-14.9c0-.7.2-1.4.6-1.9.3-.5.8-.8 1.4-1.1.5-.2 1.1-.4 1.7-.4a5 5 0 0 1 2 .4l-.6 1.7-.5-.1-.7-.1c-.6 0-1.1.2-1.4.5-.3.3-.4.8-.4 1.5V131h-2Zm16-5.4V118h2V131h-2v-2.2c-.4.6-.8 1.2-1.5 1.7-.6.4-1.5.7-2.5.7-.8 0-1.5-.2-2.1-.6-.7-.3-1.2-.9-1.5-1.6-.4-.7-.6-1.7-.6-2.8V118h2v8.2c0 1 .3 1.7.8 2.3.6.5 1.3.8 2.1.8a3.4 3.4 0 0 0 3.4-3.6Zm15-4.8-1.8.6c0-.3-.2-.6-.5-1-.2-.2-.5-.5-.9-.6-.3-.2-.8-.3-1.4-.3-.8 0-1.5.2-2 .5-.5.4-.8.9-.8 1.4 0 .5.2 1 .6 1.2.3.3.9.5 1.7.7l1.9.5c1.2.3 2 .7 2.6 1.3.6.6.9 1.3.9 2.3 0 .7-.2 1.4-.7 2-.4.6-1 1-1.8 1.4-.7.3-1.6.5-2.6.5-1.4 0-2.5-.3-3.4-.9a3.9 3.9 0 0 1-1.6-2.5l1.9-.5c.2.7.5 1.2 1 1.6.5.3 1.2.5 2 .5 1 0 1.7-.2 2.3-.6.5-.4.8-.9.8-1.4 0-.5-.2-.9-.5-1.2a3 3 0 0 0-1.4-.7l-2.2-.5c-1.2-.3-2.1-.7-2.7-1.3-.5-.6-.8-1.4-.8-2.3 0-.7.2-1.4.6-2 .4-.5 1-1 1.7-1.3a6 6 0 0 1 2.5-.5c1.3 0 2.3.3 3 .9.8.6 1.3 1.3 1.6 2.2Zm3.3 10.2v-13h2v13h-2Zm1-15.3c-.4 0-.7-.1-1-.4-.3-.2-.4-.6-.4-1 0-.3.1-.6.4-.9.3-.3.6-.4 1-.4s.8.1 1 .4c.3.3.5.6.5 1 0 .3-.2.7-.5 1-.2.2-.6.3-1 .3Zm10 15.6c-1.2 0-2.2-.3-3-.9a5.7 5.7 0 0 1-2.2-2.3 8 8 0 0 1-.7-3.6 8 8 0 0 1 .7-3.5c.5-1 1.2-1.9 2.1-2.4.9-.6 2-.9 3.1-.9a5.6 5.6 0 0 1 5.2 3.2 8 8 0 0 1 .8 3.6 8 8 0 0 1-.8 3.6c-.5 1-1.2 1.8-2 2.3-1 .6-2 .9-3.2.9Zm0-1.8c1 0 1.7-.3 2.2-.7.6-.5 1-1 1.3-1.8a7 7 0 0 0 .4-2.5 7 7 0 0 0-.4-2.4c-.3-.8-.7-1.4-1.3-1.9-.5-.4-1.3-.7-2.2-.7-.9 0-1.6.3-2.2.7-.6.5-1 1.1-1.3 1.9a7 7 0 0 0-.4 2.4c0 .9.1 1.7.4 2.5a4 4 0 0 0 1.3 1.8c.6.4 1.3.7 2.2.7Zm11-6.4v7.9h-2v-13h2v2h.1c.3-.7.8-1.2 1.4-1.6.7-.5 1.5-.7 2.5-.7.8 0 1.6.2 2.3.6.6.3 1.2.9 1.5 1.6.4.7.6 1.7.6 2.8v8.3h-2v-8.2c0-1-.3-1.8-.8-2.4-.6-.6-1.3-.9-2.2-.9-.7 0-1.2.2-1.7.5a3 3 0 0 0-1.2 1.2 4 4 0 0 0-.5 2ZM676.2 212.4v-1.9h13v2h-5.4V228h-2.2v-15.6h-5.4Zm19.6 15.9c-1.2 0-2.3-.3-3.2-.9-1-.5-1.6-1.3-2.1-2.3a8 8 0 0 1-.8-3.5c0-1.4.3-2.6.8-3.6s1.1-1.8 2-2.4c1-.6 2-.9 3.1-.9.7 0 1.4.2 2 .4a5 5 0 0 1 3.2 3.1c.3.8.5 1.9.5 3v1h-10.1v-1.8h8c0-.7-.1-1.4-.4-2a3.3 3.3 0 0 0-3.2-1.9c-.8 0-1.5.2-2 .6a4 4 0 0 0-1.4 1.6c-.3.6-.5 1.3-.5 2v1.2c0 1 .2 1.8.5 2.5.4.7.9 1.2 1.5 1.5.6.4 1.3.6 2.1.6.6 0 1-.1 1.5-.3a3 3 0 0 0 1-.6c.4-.3.6-.7.8-1.2l2 .6-1 1.7a5 5 0 0 1-1.9 1.2c-.7.2-1.5.4-2.4.4Zm13.8 0c-1.2 0-2.3-.3-3.1-.9a5.7 5.7 0 0 1-2-2.4c-.6-1-.8-2.2-.8-3.5a8 8 0 0 1 .7-3.5c.5-1 1.2-1.8 2-2.4 1-.6 2-.9 3.2-.9 1 0 1.7.2 2.5.6a4.5 4.5 0 0 1 2.7 3.6h-2c-.2-.7-.5-1.2-1-1.7a3 3 0 0 0-2.2-.7c-.8 0-1.4.3-2 .7-.6.4-1 1-1.4 1.7-.3.7-.5 1.6-.5 2.6s.2 1.8.5 2.6a4 4 0 0 0 1.3 1.7c.6.5 1.3.7 2.1.7.6 0 1-.1 1.5-.3a3 3 0 0 0 1.7-2h2a4.7 4.7 0 0 1-2.6 3.5c-.8.4-1.6.6-2.6.6Zm10.1-8.2v7.9h-2v-17.5h2v6.5h.2c.3-.7.8-1.3 1.4-1.7.6-.4 1.4-.6 2.5-.6a5 5 0 0 1 2.3.6c.7.3 1.2.9 1.6 1.6.3.7.5 1.7.5 2.8v8.3h-2v-8.2c0-1-.3-1.8-.8-2.4-.5-.6-1.3-.9-2.2-.9-.7 0-1.3.2-1.8.5a3 3 0 0 0-1.2 1.2 4 4 0 0 0-.5 2Zm14.2 0v7.9h-2v-13h2v2h.1c.3-.7.8-1.2 1.4-1.6.6-.5 1.4-.7 2.4-.7s1.7.2 2.4.6c.6.3 1.1.9 1.5 1.6.4.7.6 1.7.6 2.8v8.3h-2v-8.2c0-1-.3-1.8-.9-2.4-.5-.6-1.2-.9-2.2-.9-.6 0-1.2.2-1.7.5a3 3 0 0 0-1.2 1.2 4 4 0 0 0-.4 2Zm17.4 8.2a5.7 5.7 0 0 1-5.2-3.2 8 8 0 0 1-.8-3.6 8 8 0 0 1 .8-3.5c.5-1 1.2-1.9 2-2.4 1-.6 2-.9 3.2-.9 1.1 0 2.2.3 3 .9 1 .5 1.6 1.3 2.1 2.4a8 8 0 0 1 .8 3.5 8 8 0 0 1-.8 3.6c-.5 1-1.2 1.8-2 2.3-1 .6-2 .9-3.1.9Zm0-1.8c.9 0 1.6-.3 2.2-.7.5-.5 1-1 1.3-1.8a7 7 0 0 0 .4-2.5 7 7 0 0 0-.4-2.4c-.3-.8-.8-1.4-1.3-1.9-.6-.4-1.3-.7-2.2-.7-1 0-1.7.3-2.3.7-.5.5-1 1.1-1.3 1.9a7 7 0 0 0-.4 2.4c0 .9.2 1.7.5 2.5a4 4 0 0 0 1.2 1.8c.6.4 1.4.7 2.3.7Zm11-16V228h-2v-17.5h2Zm9 17.8c-1.2 0-2.3-.3-3.1-.9a5.7 5.7 0 0 1-2.1-2.3 8 8 0 0 1-.8-3.6 8 8 0 0 1 .8-3.5c.5-1 1.2-1.9 2-2.4 1-.6 2-.9 3.2-.9 1.2 0 2.2.3 3 .9 1 .5 1.7 1.3 2.2 2.4a8 8 0 0 1 .7 3.5 8 8 0 0 1-.8 3.6c-.4 1-1.1 1.8-2 2.3-1 .6-2 .9-3.1.9Zm0-1.8c.9 0 1.6-.3 2.2-.7.6-.5 1-1 1.3-1.8a7 7 0 0 0 .4-2.5 7 7 0 0 0-.4-2.4c-.3-.8-.7-1.4-1.3-1.9-.6-.4-1.3-.7-2.2-.7-1 0-1.7.3-2.2.7-.6.5-1 1.1-1.3 1.9a7 7 0 0 0-.5 2.4c0 .9.2 1.7.5 2.5a4 4 0 0 0 1.3 1.8c.5.4 1.3.7 2.2.7Zm14.3 6.7c-1 0-1.9-.1-2.6-.4a5.3 5.3 0 0 1-2.8-2.2l1.6-1.2.7.8c.3.4.7.6 1.1.9.5.2 1.2.3 2 .3 1 0 1.9-.2 2.6-.8.7-.5 1-1.3 1-2.4v-2.6h-.2l-.6.9-1.2.9c-.5.3-1.1.4-2 .4-1 0-2-.3-2.8-.8a5.3 5.3 0 0 1-2-2.1c-.5-1-.7-2.2-.7-3.5 0-1.4.2-2.5.7-3.5.4-1 1-1.8 2-2.3.8-.6 1.7-.9 2.8-.9.9 0 1.6.2 2 .5.6.2 1 .6 1.2 1l.7.8h.2v-2h2v13.4c0 1.1-.3 2-.9 2.7-.5.7-1.1 1.2-2 1.6-.9.3-1.8.5-2.8.5Zm-.1-7.2c.8 0 1.5-.2 2-.6.6-.3 1-.9 1.3-1.6.3-.7.4-1.5.4-2.4 0-1-.1-1.8-.4-2.5-.3-.8-.7-1.3-1.3-1.7-.5-.4-1.2-.7-2-.7a3.4 3.4 0 0 0-3.4 2.4c-.3.8-.4 1.6-.4 2.5 0 .9.1 1.7.4 2.4.3.7.7 1.2 1.3 1.6.5.4 1.2.6 2 .6Zm10.7 7a4.4 4.4 0 0 1-1.5-.3l.5-1.8c.5.1 1 .2 1.3.1.4 0 .7-.2 1-.5.3-.3.6-.7.8-1.4l.4-1-4.8-13.2h2.2l3.6 10.4h.1l3.6-10.4h2.2l-5.6 15c-.2.7-.5 1.2-.9 1.7-.4.4-.8.8-1.3 1a4 4 0 0 1-1.6.3ZM518.1 131v-17.5h6c1.3 0 2.4.3 3.3.8.8.5 1.5 1.1 2 2 .3.8.5 1.7.5 2.8 0 1-.2 2-.6 2.8-.4.8-1 1.5-2 2-.8.5-1.9.7-3.3.7h-4.2v-1.8h4.2c1 0 1.7-.2 2.2-.5.6-.4 1-.8 1.3-1.3.2-.6.4-1.2.4-2 0-.6-.2-1.3-.4-1.8-.3-.6-.7-1-1.3-1.3-.5-.3-1.3-.5-2.3-.5h-3.7V131h-2Zm15 0v-13h2v1.9c.3-.7.7-1.2 1.4-1.6.6-.4 1.3-.6 2-.6a20.5 20.5 0 0 1 1.1 0v2a6 6 0 0 0-1.2 0c-.6 0-1.2 0-1.7.3a3 3 0 0 0-1.6 2.7v8.3h-2Zm13.8.3c-1.2 0-2.2-.3-3-.9a5.7 5.7 0 0 1-2.2-2.3 8 8 0 0 1-.7-3.6 8 8 0 0 1 .7-3.5c.5-1 1.2-1.9 2.1-2.4 1-.6 2-.9 3.1-.9a5.7 5.7 0 0 1 5.2 3.2 8 8 0 0 1 .8 3.6 8 8 0 0 1-.8 3.6c-.5 1-1.2 1.8-2 2.3-1 .6-2 .9-3.2.9Zm0-1.8c1 0 1.7-.3 2.2-.7.6-.5 1-1 1.3-1.8a7 7 0 0 0 .4-2.5 7 7 0 0 0-.4-2.4c-.3-.8-.7-1.4-1.3-1.9-.5-.4-1.3-.7-2.2-.7-.9 0-1.6.3-2.2.7-.6.5-1 1.1-1.3 1.9a7 7 0 0 0-.4 2.4c0 .9.1 1.7.4 2.5a4 4 0 0 0 1.3 1.8c.6.4 1.3.7 2.2.7Zm9 6.4v-18h2v2h.2c.2-.1.4-.4.6-.8l1.2-1c.5-.2 1.1-.4 2-.4a5.2 5.2 0 0 1 4.9 3.2c.4 1 .7 2.2.7 3.6s-.3 2.6-.7 3.6c-.5 1-1.1 1.8-2 2.3-.8.6-1.8.9-2.9.9-.8 0-1.5-.2-2-.4l-1.2-1-.6-1h-.2v7h-2Zm2-11.4c0 1 .1 1.8.4 2.6a4 4 0 0 0 1.3 1.7c.6.5 1.2.7 2 .7.9 0 1.6-.3 2.2-.7.5-.4 1-1 1.2-1.8a6.9 6.9 0 0 0 0-5c-.2-.8-.7-1.4-1.2-1.8-.6-.4-1.3-.7-2.1-.7a3.4 3.4 0 0 0-3.4 2.4 7 7 0 0 0-.4 2.6Zm14.7-1.4v7.9h-2v-17.5h2v6.5h.1c.3-.7.8-1.3 1.4-1.7.6-.4 1.5-.6 2.5-.6a5 5 0 0 1 2.3.6c.7.3 1.2.9 1.6 1.6.4.7.6 1.7.6 2.8v8.3h-2v-8.2c0-1-.3-1.8-.9-2.4-.5-.6-1.2-.9-2.2-.9-.7 0-1.2.2-1.8.5a3 3 0 0 0-1.2 1.2 4 4 0 0 0-.4 2Zm17.6 8.2c-1.2 0-2.3-.3-3.2-.9-1-.5-1.7-1.3-2.1-2.3a8 8 0 0 1-.8-3.5c0-1.4.3-2.6.8-3.6.4-1 1.1-1.8 2-2.4.9-.6 2-.9 3.1-.9.7 0 1.4.2 2 .4a5 5 0 0 1 3.2 3.1c.3.8.4 1.9.4 3v1h-10v-1.8h8c0-.7-.2-1.4-.4-2a3.4 3.4 0 0 0-3.2-1.9c-.8 0-1.5.2-2 .6a4 4 0 0 0-1.4 1.6c-.3.6-.5 1.3-.5 2v1.2c0 1 .2 1.8.5 2.5.4.7.9 1.2 1.5 1.5.6.4 1.3.6 2.1.6l1.5-.3a3 3 0 0 0 1-.6c.4-.3.6-.7.8-1.2l2 .6c-.3.6-.6 1.2-1.1 1.7a5 5 0 0 1-1.8 1.2c-.7.2-1.5.4-2.4.4Zm14.2-13.4v1.7h-6.8V118h6.8Zm-4.8-3.1h2v12.5c0 .5 0 1 .2 1.2.2.3.4.5.7.6l.8.1H604.2l.4 1.7a4.1 4.1 0 0 1-1.5.3 4 4 0 0 1-1.6-.4c-.6-.2-1-.6-1.4-1.1-.3-.5-.5-1.1-.5-1.9v-13ZM19.8 113.5l5.2 14.7h.2l5.2-14.7h2.2L26.2 131H24l-6.4-17.5h2.2ZM35.3 131v-17.5H46v2h-8.5v5.8h8v1.9h-8v6H46v1.8H35.3Zm26.3-12-.7-1.5a4.8 4.8 0 0 0-4.3-2.2 5.2 5.2 0 0 0-4.8 3.1c-.5 1-.8 2.4-.8 3.9s.3 2.8.8 3.8 1.2 1.8 2 2.4c1 .5 1.9.8 3 .8 1 0 1.8-.3 2.6-.7.8-.4 1.4-1 1.8-1.8.4-.8.6-1.7.6-2.8l.7.1h-5.3v-1.8H64v1.8c0 1.5-.3 2.7-1 3.8-.5 1-1.4 1.9-2.5 2.5-1 .5-2.2.8-3.6.8-1.6 0-3-.3-4.1-1-1.2-.8-2-1.8-2.7-3.2-.7-1.3-1-2.9-1-4.7 0-1.4.2-2.6.5-3.8.4-1 1-2 1.6-2.8a7 7 0 0 1 5.5-2.4 7.7 7.7 0 0 1 4.7 1.6 6.6 6.6 0 0 1 2.5 4.1h-2.2Zm8-5.5V131h-2v-17.5h2ZM74 131v-17.5h5.9c1.3 0 2.5.3 3.3.8.9.5 1.5 1.1 2 2 .4.8.6 1.7.6 2.8 0 1-.2 2-.6 2.8-.5.8-1 1.5-2 2-.8.5-2 .7-3.3.7h-4.2v-1.8h4.1c1 0 1.7-.2 2.3-.5.6-.4 1-.8 1.2-1.3.3-.6.4-1.2.4-2 0-.6-.1-1.3-.4-1.8-.2-.6-.6-1-1.2-1.3-.6-.3-1.4-.5-2.3-.5H76V131h-2.1Zm30-8.7c0 1.8-.4 3.4-1 4.7a7.3 7.3 0 0 1-6.7 4.2c-1.6 0-2.9-.3-4-1-1.2-.8-2.1-1.8-2.8-3.2-.7-1.3-1-2.9-1-4.7 0-1.9.3-3.5 1-4.8a7.3 7.3 0 0 1 6.7-4.2 7.3 7.3 0 0 1 6.7 4.2c.7 1.3 1 3 1 4.8Zm-2.1 0c0-1.5-.3-2.8-.8-3.9-.5-1-1.2-1.8-2-2.3-.9-.5-1.8-.8-2.9-.8-1 0-2 .3-2.9.8-.8.5-1.5 1.3-2 2.3-.5 1-.7 2.4-.7 3.9s.2 2.8.7 3.8c.5 1 1.2 1.8 2 2.4 1 .5 1.9.8 3 .8a5.3 5.3 0 0 0 4.8-3.2c.5-1 .8-2.3.8-3.8Zm15.1-4.4c0-.9-.5-1.5-1.2-2s-1.6-.7-2.7-.7a5 5 0 0 0-2 .4c-.6.2-1 .6-1.4 1a2.5 2.5 0 0 0-.1 2.7c.2.3.5.6.9.8l1 .5 1.1.4 1.8.5c.5 0 1 .2 1.5.4a7 7 0 0 1 1.6 1c.5.3 1 .7 1.3 1.3a4.6 4.6 0 0 1-.2 4.6 5 5 0 0 1-2.2 1.8c-1 .5-2 .7-3.4.7a8 8 0 0 1-3.2-.6 4.8 4.8 0 0 1-3-4.2h2.1c0 .7.3 1.2.7 1.6.4.5.9.8 1.5 1a6 6 0 0 0 4 0c.7-.4 1.2-.7 1.6-1.2.4-.5.6-1 .6-1.7 0-.6-.2-1-.5-1.4-.3-.4-.8-.6-1.3-.9l-1.7-.6-2.2-.6a8 8 0 0 1-3.2-1.7 3.7 3.7 0 0 1-1.2-2.8c0-1 .3-1.8.8-2.6.5-.7 1.2-1.3 2.1-1.7 1-.4 2-.6 3-.6 1.2 0 2.2.2 3 .6 1 .4 1.6 1 2.2 1.6.5.7.7 1.5.8 2.4h-2Zm4.8-2.5v-1.9h13.1v2h-5.5V131h-2v-15.6h-5.6ZM58 163.5V181h-2l-9.6-13.7h-.2V181h-2v-17.5h2l9.5 13.8h.2v-13.8h2Zm9.2 17.8c-1.2 0-2.2-.3-3-.9a5.7 5.7 0 0 1-2.2-2.3 8 8 0 0 1-.7-3.6 8 8 0 0 1 .7-3.5c.5-1 1.2-1.9 2.1-2.4 1-.6 2-.9 3.1-.9a5.6 5.6 0 0 1 5.2 3.2 8 8 0 0 1 .8 3.6 8 8 0 0 1-.8 3.6c-.5 1-1.2 1.8-2 2.3-1 .6-2 .9-3.2.9Zm0-1.8c1 0 1.7-.3 2.2-.7.6-.5 1-1 1.3-1.8a7 7 0 0 0 .4-2.5 7 7 0 0 0-.4-2.4c-.2-.8-.7-1.4-1.3-1.9-.5-.4-1.3-.7-2.2-.7-.9 0-1.6.3-2.2.7-.6.5-1 1.1-1.3 1.9a7 7 0 0 0-.4 2.4c0 .9.1 1.7.4 2.5a4 4 0 0 0 1.3 1.8c.6.4 1.3.7 2.2.7ZM82 167.9v1.7h-6.8V168H82Zm-4.8-3.1h2v12.4c0 .6.1 1 .3 1.3.1.3.4.5.6.6l.9.1h.9l.4 1.7a4.1 4.1 0 0 1-1.5.3 4 4 0 0 1-1.7-.4c-.5-.2-1-.6-1.4-1.1-.3-.5-.5-1.1-.5-2v-13ZM85 181v-13h2v13h-2Zm1-15.3c-.4 0-.8-.1-1-.4a1.3 1.3 0 0 1 0-2c.2-.2.6-.3 1-.3s.7.1 1 .4c.3.3.4.6.4 1 0 .3-.1.7-.4 1-.3.2-.6.3-1 .3Zm14 5.1-1.9.6-.5-1c-.2-.2-.5-.5-.9-.6-.4-.2-.8-.3-1.4-.3-.8 0-1.5.2-2 .5-.5.4-.8.9-.8 1.4 0 .5.2 1 .5 1.2.4.3 1 .5 1.7.7l2 .5c1.2.3 2 .7 2.6 1.3.6.6.9 1.3.9 2.3 0 .7-.3 1.4-.7 2-.4.6-1 1-1.8 1.4-.7.3-1.6.5-2.7.5-1.3 0-2.4-.3-3.3-.9a3.9 3.9 0 0 1-1.6-2.5l1.9-.5c.2.7.5 1.2 1 1.6.5.3 1.2.5 2 .5 1 0 1.7-.2 2.2-.6.6-.4.9-.9.9-1.4 0-.5-.2-.9-.5-1.2a3 3 0 0 0-1.5-.7l-2.1-.5c-1.2-.3-2.1-.7-2.7-1.3-.5-.6-.8-1.4-.8-2.3 0-.7.2-1.4.6-2 .4-.5 1-1 1.7-1.3a6 6 0 0 1 2.5-.5c1.3 0 2.3.3 3 .9.8.6 1.3 1.3 1.6 2.2ZM168.7 118c-.1-1-.6-1.6-1.3-2.1-.7-.5-1.6-.7-2.7-.7a5 5 0 0 0-2 .4c-.6.2-1 .6-1.3 1a2.5 2.5 0 0 0-.2 2.7c.2.3.5.6.9.8l1.1.5 1 .4 1.8.5c.5 0 1 .2 1.6.4a7 7 0 0 1 1.6 1c.5.3 1 .7 1.2 1.3.4.6.5 1.2.5 2 0 1-.2 1.9-.7 2.6a5 5 0 0 1-2.1 1.8c-1 .5-2.1.7-3.5.7a8 8 0 0 1-3.2-.6c-1-.4-1.6-1-2.2-1.7-.5-.7-.8-1.5-.8-2.5h2.1c.1.7.3 1.2.7 1.6.4.5.9.8 1.5 1a6 6 0 0 0 4.1 0c.7-.4 1.2-.7 1.5-1.2.4-.5.6-1 .6-1.7 0-.6-.2-1-.5-1.4-.3-.4-.7-.6-1.3-.9l-1.7-.6-2.1-.6a8 8 0 0 1-3.3-1.7 3.7 3.7 0 0 1-1.2-2.8c0-1 .3-1.8.8-2.6.6-.7 1.3-1.3 2.2-1.7.9-.4 1.9-.6 3-.6s2.1.2 3 .6c.9.4 1.6 1 2 1.6.6.7.9 1.5 1 2.4h-2.1Zm11.1 0v1.6h-6.7V118h6.7Zm-4.8-3.2h2v12.5c0 .5.1 1 .3 1.2l.6.6.9.1h.9l.4 1.7a4 4 0 0 1-1.5.3 4 4 0 0 1-1.7-.4c-.5-.2-1-.6-1.3-1.1-.4-.5-.6-1.1-.6-1.9v-13ZM183 131v-13h2v13h-2Zm1-15.3c-.4 0-.7-.1-1-.4-.3-.2-.4-.6-.4-1 0-.3 0-.6.4-.9.3-.3.6-.4 1-.4s.7.1 1 .4c.3.3.4.6.4 1 0 .3-.1.7-.4 1-.3.2-.6.3-1 .3Zm10 15.6c-1.2 0-2.3-.3-3.2-.9a5.7 5.7 0 0 1-2-2.4c-.5-1-.8-2.2-.8-3.5a8 8 0 0 1 .8-3.5c.5-1 1.2-1.8 2-2.4 1-.6 2-.9 3.1-.9 1 0 1.8.2 2.5.5.8.4 1.4.9 1.8 1.5.5.6.8 1.3 1 2.1h-2c-.2-.6-.6-1-1.1-1.6a3 3 0 0 0-2.1-.7c-.8 0-1.5.3-2 .7-.7.4-1.1 1-1.5 1.7-.3.7-.4 1.6-.4 2.6s.1 1.8.4 2.6a4 4 0 0 0 1.4 1.7c.6.5 1.3.7 2 .7.6 0 1-.1 1.5-.3a3 3 0 0 0 1.7-2h2a4.7 4.7 0 0 1-2.6 3.5c-.7.4-1.6.6-2.5.6Zm10-5v-2.6h.3l5.7-5.8h2.5l-6 6.2h-.2l-2.4 2.1Zm-2 4.7v-17.5h2V131h-2Zm8.4 0-5.1-6.5 1.4-1.4 6.2 7.9h-2.5Zm4.7 0v-13h2v2h.1c.3-.7.7-1.3 1.4-1.7a4 4 0 0 1 2.1-.6c1 0 1.6.2 2.2.6.6.4 1 1 1.4 1.7.4-.7 1-1.3 1.6-1.7.7-.4 1.5-.6 2.4-.6a4 4 0 0 1 2.9 1.1c.7.8 1.1 1.9 1.1 3.4v8.8h-2v-8.8c0-1-.3-1.6-.8-2a3 3 0 0 0-1.9-.7c-.9 0-1.6.3-2.1.9a3 3 0 0 0-.8 2v8.6h-2v-9c0-.7-.3-1.3-.7-1.8-.5-.4-1.1-.7-1.9-.7-.5 0-1 .2-1.5.5-.4.2-.8.6-1 1.1-.3.5-.5 1-.5 1.7v8.2h-2Zm24.7.3c-.8 0-1.5-.1-2.2-.5-.7-.3-1.2-.7-1.6-1.3-.4-.6-.6-1.4-.6-2.2 0-.8.1-1.4.4-1.8.3-.5.7-.9 1.2-1.1.5-.3 1-.5 1.6-.6a19.5 19.5 0 0 1 3.8-.6 3 3 0 0 0 1-.3c.3-.1.4-.3.4-.7 0-.9-.2-1.5-.7-2-.4-.5-1.1-.7-2-.7-1 0-1.8.2-2.3.6-.5.5-1 1-1.1 1.4l-2-.7c.4-.8.8-1.4 1.4-1.9.6-.4 1.2-.7 1.9-.9a7.8 7.8 0 0 1 3.4-.1c.6 0 1.1.3 1.6.6.6.3 1 .8 1.3 1.4.4.6.5 1.4.5 2.5v8.6h-2v-1.8l-.8 1a4 4 0 0 1-1.2.8c-.6.2-1.2.3-2 .3Zm.3-1.8a4 4 0 0 0 2-.5 3.2 3.2 0 0 0 1.7-2.7v-1.9l-.5.3a9.7 9.7 0 0 1-2.1.4 64 64 0 0 0-2.3.4l-1.1.7c-.3.3-.4.7-.4 1.2 0 .7.2 1.2.8 1.6.5.3 1.1.5 2 .5Zm11.4-6.4v7.9h-2v-13h2v2h.1c.3-.7.8-1.2 1.4-1.6.6-.5 1.4-.7 2.4-.7s1.7.2 2.4.6c.6.3 1.1.9 1.5 1.6.4.7.6 1.7.6 2.8v8.3h-2v-8.2c0-1-.3-1.8-.8-2.4-.6-.6-1.3-.9-2.2-.9-.7 0-1.3.2-1.8.5a3 3 0 0 0-1.2 1.2 4 4 0 0 0-.4 2Z"/></svg>