<svg width="48" height="40" viewBox="0 0 48 40" fill="none" xmlns="http://www.w3.org/2000/svg">
<path d="M19.0639 37.6271C18.4477 37.8191 17.8306 37.333 17.873 36.6889L18.4576 27.8138C18.4876 27.3582 18.691 26.9312 19.0259 26.6207L38.968 8.13127L38.7282 7.33409L37.8489 7.49353L28.4164 13.6318L12.6124 23.4921C12.3442 23.6595 12.0158 23.7 11.715 23.6027L0.598719 20.0093C-0.163066 19.5155 -0.179228 18.4063 0.567847 17.8905L1.07833 17.538L26.498 7.8124L38.4084 3.10902L44.6434 0.876902C45.9954 0.453143 47.3537 1.51258 47.2718 2.92707L47.2014 4.14536L43.5243 20.8065L40.5932 35.6204C39.9911 38.6636 36.4573 40.0809 33.9192 38.2971L25.1391 32.1265L19.0639 37.6271Z" fill="#4FFFD3"/>
</svg>
